<?xml version="1.0" encoding="utf-8"?>
<!-- Generator: Adobe Illustrator 24.3.0, SVG Export Plug-In . SVG Version: 6.00 Build 0)  -->
<svg version="1.1" id="sceau-tea_xA0_Image_1_" xmlns="http://www.w3.org/2000/svg" xmlns:xlink="http://www.w3.org/1999/xlink"
	 x="0px" y="0px" viewBox="0 0 1154.71 1140.09" style="enable-background:new 0 0 1154.71 1140.09;" xml:space="preserve">
<style type="text/css">
	.st0{fill:#B63325;}
	.st1{fill:#FFFFFF;}
</style>
<g>
	<path class="st0" d="M835.09,1059.24c-1.5-4.95-2.95-9.76-4.31-14.26c-5.11-0.99-10.14,0.11-13.74-3.84
		c-4.47,1.61-8.26-2.09-12.56-1.62c-3.39,0.37-6.84,0.62-10.11,1.49c-3.6,0.95-7.17,2.25-10.48,3.94
		c-3.82,1.96-7.41,3.96-11.92,2.36c-1.03-0.37-2.47-0.39-3.45,0.04c-5.18,2.28-8.51-0.84-11.81-3.9c-2.17-2.02-4.05-4.35-6.19-6.41
		c-3.29-3.18-8.29-2.67-11.48,0.76c-3.35,3.61-7.63,5.8-12.46,6.73c-0.84,0.16-2.29-0.2-2.69-0.81c-1.71-2.65-4.17-2.28-6.11-1.17
		c-3.39,1.95-6.89,2.21-10.65,2.49c-4.97,0.38-9.84,1.67-14.73,2.93c-4.89,1.26-10.54,1.4-15.08-2.5c-3.14-2.7-7.12-2.37-10.92-2.9
		c-5.88-0.82-11.47-1.37-16.94,2.07c-1.49,0.93-4.24-0.21-6.41-0.28c-2.7-0.09-5.42-0.2-8.12-0.04c-5.14,0.31-10.26,0.93-15.4,1.12
		c-1.2,0.05-2.63-0.88-3.65-1.73c-6.64-5.52-8.96-5.6-14.96-1.21c-1.47,1.07-3.53,1.33-5.72,2.11c-0.79,2.91-3.19,5.03-6.55,3.94
		c-7.02-2.27-14.11-0.97-21.16-1.38c-4.42-0.26-8.93-1.12-13.13-2.53c-5.07-1.69-9.28,0.31-13.95,1.39
		c-4.23,0.98-8.87,0.18-13.32,0.11c-0.47-0.01-0.98-0.55-1.4-0.47c-6.43,1.22-13.24,0.29-19.31,3.62
		c-4.24,2.33-8.45,2.79-12.97,0.03c-3.71-2.27-7.87-3.84-11.92-5.5c-3.42-1.41-4.48-0.6-4.47,3.11c0.01,2.04,0.21,4.09,0.26,5.13
		c-1.29,1.73-2.16,4-3.23,4.1c-2.92,0.26-6.46,0.49-8.75-0.91c-2.5-1.52-5.48-3.59-5.44-7.8c0.01-1.49-2.57-3.76-4.39-4.3
		c-1.67-0.5-4.19,0.38-5.82,1.45c-5.47,3.59-10.13,1.94-14.84-1.45c-3.2-2.3-5.57-1.61-8.2,1.63c-1.18,1.45-4.81,1.65-7.12,1.25
		c-3.93-0.68-7.73-2.18-11.51-3.55c-2.14-0.77-4.14-1.94-6.17-2.99c-2.13-1.09-3.67-1.18-6.13,0.34c-3.61,2.23-7.2,7.12-12.58,2.95
		c-0.31-0.24-1.69,0.38-2.14,0.95c-2.31,2.9-4.49,5.92-6.78,9c-0.65-0.3-1.5-0.4-1.75-0.84c-3.37-5.93-8.71-2.76-13.27-2.87
		c-7.53-0.17-15.19,1.87-22.13-3.47c-2.99-2.3-7.12-3.42-10.91-4.25c-1.46-0.32-3.65,1.38-5.1,2.64c-3.24,2.81-5.85,6.59-10.57,6.98
		c-1.69,0.14-3.45-0.51-4.61-0.7c-2.84,0-5.08-0.02-7.33,0c-5.05,0.06-10.11,0.02-15.15,0.23c-7.52,0.31-15.03,0.79-22.54,1.21
		c-0.26,0.01-0.51,0.12-0.76,0.11c-3.86-0.21-7.73-0.69-11.58-0.57c-2.77,0.09-5.55,0.84-8.27,1.53c-3.55,0.89-6.41,0.64-8.61-2.89
		c-0.55-0.88-2.93-0.96-4.41-0.82c-1.89,0.18-3.7,1.03-5.57,1.48c-2.91,0.71-5.76,1.94-8.63-0.58c-0.84-0.74-2.76-0.16-4.16-0.36
		c-3.43-0.47-6.88-0.93-10.27-1.61c-2.97-0.59-5.91-2.16-8.81-2.05c-3.67,0.14-5.63-2.09-8.05-3.87c-3.9-2.86-7.59-2.34-10.35,1.55
		c-1.76,2.48-3.84,3.89-7.15,3.66c-4.52-0.3-9.12,0.28-13.61-0.2c-4.33-0.46-8.54-1.9-12.85-2.67c-1.91-0.34-4.13-0.63-5.87,0
		c-7.59,2.75-14.25,1.26-20.7-3.28c-6.61-4.65-13.46-8.94-20.13-13.34c-0.48-5.56,0.67-11.39-4.18-15.64
		c-0.42-0.37-0.71-1.21-0.64-1.78c0.66-5.37-3.66-9.21-4.34-14.08c-1.01-7.24-3.9-14.78-0.39-21.74c1.77-3.5,1.24-6.16,0.65-9.35
		c-0.2-1.09,0.35-2.31,0.2-3.43c-0.23-1.78-0.37-3.73-1.23-5.22c-1.39-2.4-2.43-4.44-1.69-7.5c0.51-2.1-0.61-4.59-1.01-6.9
		c-0.02-0.12-0.13-0.23-0.13-0.35c-0.24-4.77-0.66-9.54-0.56-14.3c0.03-1.26,1.91-2.38,2.56-3.74c0.79-1.63,1.34-3.42,1.7-5.2
		c0.79-3.99,1.41-8.01,2.07-12.02c0.1-0.63,0.32-1.4,0.07-1.89c-2.51-4.83-5.1-9.61-7.6-14.28c0.52-3.33,1.02-6.86,1.62-10.36
		c0.36-2.09-0.52-4.15,1.68-6.28c1.53-1.49,1.58-5.13,1.33-7.71c-0.49-5.07-1.85-10.04-2.49-15.1c-0.68-5.4-1.08-10.86-1.25-16.3
		c-0.04-1.24,1.15-2.69,2.1-3.76c3.45-3.95,4.57-13.25,1.94-17.28c-0.35-0.53-0.67-1.49-1.07-1.52c-4.75-0.4-4.15-4.49-5.27-7.38
		c2.94-2.61,4.56-5.77,4.55-9.68c-0.01-2.91-0.4-5.81,2.12-8.19c0.71-0.67,1.07-2.96,0.54-3.52c-4.26-4.56-2.12-8.81,0.13-13.23
		c0.51-1,0.31-2.36,0.4-3.55c0.08-1-0.27-2.29,0.23-2.97c3.1-4.19,4.82-7.79,0.14-12.54c-2.41-2.44-3.41-6.71-4.07-10.33
		c-0.85-4.67-0.74-9.51-0.99-14.28c-0.02-0.46,0.18-1.2,0.51-1.38c4.7-2.5,3.57-6.83,3.69-10.9c0.12-4.36,0.8-8.69,1.04-13.05
		c0.1-1.76-0.03-3.66-0.59-5.31c-1.4-4.11-3.7-7.99-4.54-12.18c-1.2-5.96,1.7-10.55,6.65-13.96c2.63-1.81,2.13-3.81-0.09-4.88
		c-1.33-4.71-2.43-8.66-3.57-12.61c-0.17-0.59-0.83-1.29-0.66-1.68c1.41-3.27,2.55-6.79,4.6-9.63c2.01-2.79,2.35-7.47-0.29-9.68
		c-7.26-6.07-6.83-12.62,0.91-18.36c1.57-1.17,4.68-1.2,2.79-5.77c-2.1-5.07-3.86-10.26-6.31-15.32
		c-2.77-5.71-4.63-12.09-1.48-18.83c2.31-4.93-0.25-10.01-1.07-15.01c-0.36-2.22-0.6-4.56-0.3-6.76c0.6-4.3,0.48-8.28-1.65-12.27
		c-1.52-2.84-1.06-6.01,0.92-8.73c1.57-2.16,3.22-4.25,4.91-6.45c-1.53-1.84-2.94-3.43-4.22-5.12c-0.34-0.45-0.5-1.22-0.41-1.79
		c0.38-2.62,1.06-5.21,1.29-7.85c0.67-7.54,1.46-15.08,1.63-22.63c0.11-4.92-0.82-9.85-1.22-14.78c-0.09-1.13,0.13-2.28,0.06-3.41
		c-0.05-0.89-0.03-2.04-0.55-2.61c-3.67-4.04-3.59-8.05-1.07-12.74c1.08-2,0.75-5.74-0.46-7.78c-2.09-3.53-2.37-5.89-0.21-9.74
		c1.78-3.16,1.73-7.72,1.45-11.58c-0.32-4.4,0.95-7.66,4.18-10.38c1.61-1.35,1.72-5.52,0.53-7.22c-1.61-2.29-3-4.76-4.24-7.28
		c-0.36-0.72-0.24-2.13,0.25-2.75c3.93-4.9,0.27-9.36-0.66-13.96c-0.21-1.04-0.75-2.01-1.07-3.04c-0.71-2.23-1.19-4.55-2.1-6.69
		c-0.99-2.35,0.21-7.26,2.35-9.58c1.36-1.47,3.37-3.43,3.21-4.96c-0.22-2.08-2.63-3.83-3.42-5.97c-1.37-3.69-3.02-7.67-0.73-11.49
		c2.23-3.71,0.41-7.15,0.06-10.72c-0.37-3.77-0.6-7.55-0.87-11.32c-0.02-0.24,0.08-0.63,0.24-0.7c5.27-2.55,1.96-6.6,1.24-9.65
		c-1.55-6.59-2.91-12.91-1.23-19.8c0.64-2.63,0.4-5.89-1.54-9.02c-1.37-2.21-0.46-6.23,0.3-9.23c0.66-2.6,2.59-4.86,3.83-7.32
		c0.46-0.9,0.75-1.97,0.8-2.98c0.32-6.02,0.52-11.98-2.73-17.53c-0.63-1.08,0.02-2.99,0.27-4.49c0.61-3.67,2.89-6.86,2-11.04
		c-0.7-3.31,0.34-6.95,0.06-10.4c-0.21-2.5-1.12-5-2.08-7.36c-2.02-4.94,0.29-9.35,1.36-13.93c0.5-2.13,1.34-4.29,1.3-6.42
		c-0.07-4.56-0.82-9.11-0.91-13.68c-0.07-3.96,0.36-7.93,0.62-11.89c0.3-4.59,0.52-9.19,1.02-13.76c0.23-2.07,1.09-4.06,1.58-6.11
		c0.36-1.49,0.74-3.01,0.82-4.53c0.32-6.18,0.49-12.38,0.83-18.56c0.04-0.81,0.66-1.65,1.16-2.37c1.37-1.99,0.81-4.08,0.97-6.23
		c0.56-7.56-2.39-15.48,2.32-22.79c1.68-2.61,1.76-6.28,2.46-9.49c0.19-0.86-0.26-1.91,0.03-2.71c1.16-3.17,1.68-7.93,3.94-9.03
		c4.03-1.97,9.09-3.5,13.86-0.91c0.76,0.41,1.7,0.95,2.02,1.66c1.56,3.46,3.65,3.17,6.54,1.58c1.5-0.83,3.53-0.71,5.34-0.94
		c4.46-0.57,8.92-1.12,13.38-1.65c5.94-0.71,11.9-1.25,17.81-2.14c4.92-0.74,9.75-2.08,14.68-2.76c3.39-0.47,7-0.93,10.28-0.25
		c9.91,2.05,19.88,1.89,29.83,1.28c4.26-0.26,8.44-2.63,12.67-2.65c5.55-0.03,11.1,1.44,16.68,2.02c2.17,0.22,4.74,0.42,6.56-0.5
		c6.66-3.37,13.84-3.08,20.38-1.53c5.9,1.4,11.15,1.34,16.51-0.64c4.12-1.52,7.15,0.49,9.89,2.68c3.61,2.89,6.54,3.55,9.72,0.54
		c3.8-3.59,7.58-2.76,12.2-1.85c4.47,0.88,9.19,2.09,14.23-0.28c2.84-1.34,7.16,0.46,10.82,0.84c2.18,0.23,4.97,1.39,6.43,0.47
		c4.35-2.75,7.7-0.01,10.99,1.49c3.57,1.62,12.29,1.79,15.4-0.72c4.51-3.63,4.63-3.38,9.75-0.27c1.47,0.9,4.2,0.28,6.16-0.3
		c2.19-0.65,3.54-0.77,5.46,1.04c1.22,1.15,4.03,0.79,6.12,0.79c1.84,0,4.02-1.17,5.47-0.53c5.51,2.45,11.21,2.77,17.05,2.6
		c0.81-0.02,1.62,0.6,2.46,0.68c1.47,0.14,3.32,0.67,4.39,0.02c4.05-2.45,8.02-2.04,12.14-0.56c1.56,0.56,3.27,0.85,4.67,1.68
		c1.47,0.88,3.11,2.04,3.77,3.49c0.36,0.79-0.93,2.65-1.87,3.65c-3.01,3.2-2.89,4.46,0.98,6.49c2.68,1.4,5.02,3.2,8.61,2.15
		c1.58-0.46,3.85,1.47,5.63,2.23c0.13,0.55,0.28,0.82,0.23,1.05c-0.45,2.28-0.68,5.15,2.04,5.35c1.59,0.12,3.92-2.11,4.91-3.85
		c0.99-1.74,0.71-4.19,1.01-6.51c-1.63-0.35-2.89-0.62-4.15-0.89c0-0.3-0.01-0.61-0.01-0.91c2.57-0.25,5.15-0.48,7.72-0.77
		c1.41-0.16,2.85-0.28,4.19-0.7c0.82-0.26,2.11-1.17,2.05-1.62c-0.14-0.96-0.83-2.12-1.65-2.63c-1.28-0.81-2.85-1.15-4.04-2.54
		c0.62,0.12,1.29,0.13,1.85,0.37c2.14,0.94,4.16,2.36,6.57,0.45c0.63-0.5,1.73-0.54,2.62-0.55c7.39-0.05,14.8,0.17,22.18-0.14
		c3.04-0.13,6.05-1.27,9.05-2.05c5.42-1.42,8.59,0.03,10.57,5.22c0.33,0.86-0.31,2.07-0.42,3.12c-0.18,1.81-0.95,4.9-0.33,5.21
		c1.92,0.98,4.37,1.01,6.62,1.2c1.2,0.1,2.48-0.51,3.64-0.32c2.92,0.48,4.47-0.45,5.34-3.42c0.89-3.05,2.27-5.99,3.78-8.8
		c0.52-0.97,2.09-2.03,3.11-1.97c4.22,0.25,8.41,0.92,12.62,1.42c2.76,0.33,5.52,0.61,8.21,0.91c3.02-6.68,10.23-10.19,16.82-8.13
		c0.76,0.24,1.4,1.68,1.63,2.67c0.97,4.25,1.24,4.14,4.77,2.01c1.42-0.86,4.38-0.57,5.87,0.39c3.13,2,6.26,3.33,9.94,2.89
		c1.34-0.16,2.76-0.62,3.91-1.33c4.64-2.88,8.7-2.5,12.37,1.35c1.61,1.69,6.07,1.69,7.22-0.4c2.38-4.32,6.32-4.02,10.29-4.29
		c7.38-0.5,14.76-1.16,22.12-1.94c1.16-0.12,2.22-1.21,3.31-1.89c3.46-2.16,8.35-0.34,9.07,3.59c0.42,2.26,1.34,2.67,3.45,2.27
		c10.76-2.04,21.5-1.53,32.17,0.64c3.35,0.68,6.58,2.21,9.95,2.57c3.27,0.35,6.68-0.09,9.97-0.58c3.55-0.53,7.07-1.41,10.52-2.42
		c0.7-0.2,1.3-1.56,1.51-2.49c1.25-5.34,3.76-6.35,8.05-3.12c-2.91,5.64-2.17,7.19,4.05,8.7c1.5,0.36,3.03,0.7,4.47,1.24
		c2.97,1.13,5.14,0.28,6.76-2.36c0.47-0.77,0.93-1.66,1.63-2.16c1.03-0.73,2.24-1.5,3.43-1.6c0.72-0.06,2.3,1.34,2.2,1.68
		c-0.4,1.26-1.2,2.47-2.1,3.47c-0.9,1-2.09,1.73-3.16,2.58c1.43,0.92,2.74,2.2,4.3,2.7c6.82,2.17,10.72-0.49,12.57-7.62
		c0.36-1.38,2.73-2.93,4.35-3.15c3.82-0.53,7.74-0.33,11.62-0.39c1.88-0.03,3.97-0.49,5.62,0.14c4.95,1.9,9.59,3.36,14.5-0.33
		c2.21-1.65,8.75,1.81,10.19,4.94c3.28,7.13,5.33,8.24,12.19,5.18c2.79-1.25,4.95-3.94,7.36-6.01c0.66-0.56,1.09-1.5,1.83-1.84
		c4.96-2.28,14.33,0.21,17.78,4.63c2.08,2.66,6.52,3.97,10.42,1.91c4.13-2.18,8.63-4.52,8.7-10.53c0.04-3.49,1.88-3.88,5.32-2.83
		c2.52,0.77,5.46,0.53,8.15,0.22c2.41-0.28,4.71-1.59,7.13-1.82c1.75-0.17,3.92,0.21,5.33,1.17c2.98,2.05,5.98,2.58,9.5,2.15
		c2.39-0.3,5.04,0.77,7.3,0.19c3.65-0.95,6.91-1.59,10.72-0.18c2.37,0.88,5.42,0.33,8.08-0.06c4.82-0.72,9.18-0.05,13.78,1.83
		c3.43,1.4,7.58,1.4,11.4,1.32c1.16-0.03,2.93-2.26,3.28-3.75c0.89-3.88,3.26-3.32,4.95-1.49c2.65,2.85,5.78,2.59,8.92,2.4
		c4.6-0.28,9.18-0.93,13.77-1.43c4.41-0.48,8.02,0.89,10.84,4.42c0.62,0.78,1.97,1.68,2.75,1.51c5.77-1.3,10.4,1.7,15.32,3.7
		c1.78,0.72,3.52,1.71,5.38,2.05c4.36,0.8,6.05,3.71,6.55,7.63c0.28,2.24,0.46,4.02,3.05,5.25c1.49,0.71,2.13,3.36,2.99,5.21
		c1.06,2.29,1.53,4.97,2.99,6.92c2.51,3.36,5.71,6.08,3.04,10.98c-1.68,3.08-2.5,6.61-3.89,9.85c-1.23,2.88,0.69,10.66,3.27,12.53
		c0.42,0.3,1,0.57,1.17,0.99c1.33,3.24,2.62,6.5,3.8,9.8c0.15,0.43-0.4,1.13-0.67,1.69c-2.16,4.45-4.82,8.74-6.3,13.4
		c-0.86,2.7-0.71,6.45,0.54,8.95c2.45,4.91,2.59,9.32,0.77,14.41c-1.5,4.19-2.19,8.72-2.75,13.17c-0.21,1.66,0.88,3.54,1.56,5.25
		c0.46,1.17,1.46,2.15,1.81,3.34c2.29,7.87,5.01,15.67,6.5,23.7c0.91,4.92-0.03,10.2-0.32,15.31c-0.17,2.96-0.78,5.89-1.02,8.85
		c-0.34,4.11-0.74,8.01-4.73,10.64c-2.21,1.46-0.53,8.32,1.71,10.35c2.11,1.91,4.61,4.24,5.23,6.8c1.57,6.47,2.56,13.15,3.02,19.8
		c0.24,3.42-1.46,6.93-1.73,10.44c-0.2,2.58,0.72,5.24,0.7,7.86c-0.01,1.94-0.12,4.37-1.24,5.7c-1.77,2.11-2.5,4.06-2.08,6.71
		c0.52,3.3,0.85,6.64,1.26,9.96c0.08,0.64-0.07,1.41,0.23,1.92c4.53,7.6,0.29,14.84-1.29,21.98c-1.21,5.47-1.47,10.57,0.59,15.62
		c1.26,3.09,0.96,5.65-1.39,7.7c-2.21,1.92-2.1,3.95-1.25,6.29c2.26,6.22,4.98,12.33,6.64,18.71c1.09,4.17,0.31,8.79,0.98,13.11
		c1.16,7.41-2.05,14.46-1.56,21.62c0.41,6.07-0.94,12.04,1.3,18.43c2.23,6.35,4.11,13.74-2.08,20.67
		c-5.59,6.25-2.81,13.62,2.02,19.64c5.11,6.35,5.52,12.62,2.18,20.07c-2.01,4.5-2.08,9.85-3.15,14.8
		c-2.75,12.72,1.27,25.15,1.6,37.73c0.03,1.26,0.25,2.73,0.94,3.72c3.63,5.26,1.82,10.63,1,16.18c-0.6,4.06-2.35,7.35-4.15,10.85
		c-2.07,4.01-3.23,8.41-1.52,12.99c0.27,0.71,0.53,1.55,1.07,2.02c4.16,3.63,4.47,5.9,2.53,10.85c-1.24,3.15-2.15,6.46-0.15,10.04
		c1.88,3.38,3,7.21,4.29,10.89c0.23,0.66-0.12,1.82-0.61,2.39c-2.78,3.18-3.71,6.49-2.74,10.84c0.78,3.53,0.11,7.37,0.17,11.08
		c0.12,7.54,1.62,15.36,0.07,22.53c-1.54,7.16,0.18,14.8-4.14,21.74c-2.27,3.65-3.18,8.89,0.31,13.69c1.53,2.1,1.08,5.72,1.32,8.66
		c0.4,4.95,0.65,9.91,0.95,14.86c0.24,3.99,0.72,7.99,0.66,11.99c-0.1,7.2-0.19,14.42-0.89,21.57c-0.87,8.89-2.43,17.72-3.54,26.59
		c-0.48,3.84-0.68,7.72-0.78,11.58c-0.02,0.86,0.73,1.91,1.41,2.58c5.25,5.08,6.39,11.11,4.83,18.09c-0.44,1.98,0.5,4.24,0.64,6.38
		c0.31,4.97,0.54,9.94,0.77,14.91c0.4,8.79-3,16.25-8.25,22.98c-2.31,2.96-3.06,5.22-0.32,8.79c2.16,2.81,2.73,6.95,3.64,10.59
		c0.88,3.53,1.34,7.16,1.83,10.77c0.11,0.82-0.16,1.88-0.62,2.58c-3.71,5.57-3.99,11.97-4.81,18.31c-0.29,2.26-1.72,4.64-3.26,6.42
		c-3.43,3.97-2.08,8.59-0.34,11.79c4.28,7.86,5.39,15.99,5.08,24.63c-0.15,4.08,0.01,8.17,0.08,12.26c0.07,3.57-0.65,6.42-3.26,9.46
		c-4.75,5.54-8.33,12.07-12.67,17.98c-1.39,1.89-3.63,3.16-5.51,4.69c-0.59,0.48-1.29,0.82-1.85,1.31c-4.05,3.57-8.52,5-14.1,4.39
		c-2.67-0.29-5.53,2.08-8.41,2.61c-2.5,0.45-5.17,0-7.76-0.08c-0.23-0.01-0.47-0.35-0.68-0.33c-11.23,1.39-21.42-5.46-32.68-4.15
		c-2.41,0.28-4.96-0.72-7.42-0.57c-1.36,0.08-3.3,1-3.87,2.11c-3.57,6.95-9.55,6.93-15.99,6.1c-2.17-0.28-4.5-0.85-6.54-0.35
		c-7.2,1.74-13.69-0.49-20.46-2.43c-4.77-1.37-9.25-2.69-13.28-5.77c-3.9-2.98-7.9-2.29-10.82,1.69c-3.52,4.82-8.51,4.11-13.36,3.99
		c-1.39-0.03-2.84-0.91-4.15-0.71c-4.55,0.71-7.55-1.42-10.75-4.33c-1.42-1.29-5.67-1.83-6.66-0.8c-3.51,3.64-8.86,2.36-12.36,5.6
		c-2.9,2.68-6.12,5.02-9.29,7.39c-2.05,1.53-4.14,3.07-6.42,4.21C839.28,1058.03,836.79,1058.64,835.09,1059.24z M971.6,211.39
		c2.44-5.23,5.35-10,6.88-15.19c1.28-4.35-1.9-9.36,1.07-13.83c0.13-0.19-0.21-0.7-0.35-1.05c-0.84-2.03-1.84-4.01-2.49-6.1
		c-2.23-7.18-1.7-9.25,4.36-12.89c0.92-0.55,2.38-1.6,2.28-2.2c-0.51-3.07-0.91-6.38-2.36-9.04c-2.93-5.36-2.99-7.25,1.01-11.74
		c0.68-0.76,1.37-2.65,1.04-2.97c-2.11-2.06-4.32-5-6.86-5.43c-4.44-0.75-8.09-1.61-10.51-5.82c-1.22-2.13-3.04-2.24-4.36,0.36
		c-1.62,3.18-3.94,5.4-7.86,5.23c-2.72-0.12-5.46-0.27-8.17-0.12c-1.46,0.08-3.3,0.33-4.26,1.24c-2.89,2.75-6.03,1.72-9.38,1.73
		c-6.05,0.01-12.16,0.66-18.13,1.71c-4.41,0.78-8.6,2.71-13.19,0.96c-1.05-0.4-2.43-0.73-3.42-0.4c-3.97,1.32-7.17,0.45-10.92-1.55
		c-5.31-2.82-10.29-5.29-12.11-11.65c-0.28-0.99-2.4-1.84-3.75-1.98c-0.74-0.08-2.28,1.42-2.36,2.3c-0.24,2.69,0.04,5.43,0.14,8.14
		c0.03,0.96,0.36,1.98,0.12,2.86c-0.26,0.95-13.57,5.74-14.58,5.44c-0.12-0.04-0.25-0.06-0.38-0.1c-6.36-1.98-12.7-4.04-19.1-5.87
		c-1.66-0.47-3.63-0.64-5.27-0.22c-4.76,1.21-9.37,3.01-14.13,4.18c-5.98,1.47-11.62,6.53-18.28,2c-0.28-0.19-0.76-0.08-1.15-0.14
		c-3.4-0.49-6.79-1.02-10.19-1.48c-3.27-0.44-6.64-1.47-9.8-1.04c-3.1,0.42-5.85,1.46-8.67-0.82c-0.74-0.6-2.2-0.43-3.33-0.42
		c-3.86,0.02-7.81,0.67-11.56,0.06c-5.05-0.82-9.69-1.66-14.89,0.24c-2.89,1.06-7.25,0.32-10.09-1.2
		c-4.97-2.66-9.55-5.54-15.49-3.86c-0.48,0.14-1.08,0.14-1.55-0.02c-5.03-1.76-9.24,0.66-13.65,2.48c-3.81,1.58-6.56,1.26-8.21-2.14
		c-0.52-1.08-1.74-1.82-2.64-2.71c-0.75,0.94-1.74,1.78-2.22,2.84c-2.06,4.48-5.36,5.9-9.9,4.12c-0.59-0.23-1.26-0.44-1.89-0.41
		c-3.74,0.17-5.55-1.91-6.49-5.25c-0.71-2.52-5.07-3.87-6.53-2.03c-3.95,4.95-9.55,5.03-15.01,4.88c-3.76-0.1-7.48-1.22-11.24-1.72
		c-0.95-0.12-2.35,0.08-2.91,0.71c-2.69,2.97-5.99,2.66-9.45,2.36c-1.36-0.12-2.77,0.45-4.17,0.63c-6.49,0.83-12.98,2.12-19.49,2.29
		c-5.16,0.13-10.34-1.38-15.54-1.68c-4.93-0.28-10.46-2.97-14.37,2.77c-0.4,0.58-1.84,0.5-2.82,0.63
		c-5.41,0.73-10.85,1.31-16.24,2.18c-4.15,0.67-8.01,3.18-12.35-0.39c-2.32-1.9-5.83-2.88-8.91-3.21
		c-5.06-0.54-10.21-0.31-15.31-0.2c-3.24,0.07-5.72-0.75-7.16-3.94c-0.41-0.9-1.63-2.21-2.27-2.1c-4.72,0.82-10.13,0.83-13.84,3.32
		c-3.25,2.17-5.06,1.64-7.89,0.54c-3.25-1.27-6.66-2.96-10.01-2.98c-5.93-0.03-10.03-2.3-13.09-7.14c-0.34-0.53-1.54-0.67-2.36-0.72
		c-3.33-0.24-4.8,2.59-7.13,4.13c-4.2,2.78-9.01,4.68-13.6,6.85c-2.96,1.4-5.9,3.33-9.03,3.78c-3.7,0.53-7.65,0.07-11.36-0.66
		c-2.26-0.44-3.93-0.31-5.76,0.94c-2.53,1.74-4.8,1.77-7.28-0.63c-0.99-0.95-3.34-0.58-5.07-0.63c-0.79-0.02-1.59,0.54-2.4,0.58
		c-8.45,0.47-16.99,0.3-25.33,1.49c-7.35,1.05-14.54,1.67-21.84,0.35c-0.48-0.09-1.06-0.25-1.36-0.58
		c-2.37-2.62-5.24-2.75-8.39-1.88c-3.35,0.92-6.66,1.61-9.4-1.56c-1.77-2.05-4.1-2.07-5.83-0.29c-2.25,2.3-4.26,1.46-6.63,0.53
		c-4.61-1.82-9.32-3.02-14.37-2.01c-2.22,0.44-4.51,0.53-6.77,0.72c-5.73,0.47-12.19-4.04-17.04,2.51c-0.12,0.16-0.47,0.17-0.73,0.2
		c-3.69,0.39-7.38,1.09-11.07,1.07c-4.72-0.03-9.43-0.82-14.15-0.93c-2.94-0.07-5.9,0.77-8.85,0.73c-4.89-0.06-9.79-0.47-14.67-0.81
		c-1.13-0.08-2.22-0.55-3.35-0.73c-3.86-0.63-7.77-1.9-11.57-1.63c-5.6,0.39-11.43,0.17-16.5,3.78c-3.43,2.45-7.48,4.02-11.13,6.19
		c-0.7,0.42-1.14,1.78-1.17,2.73c-0.2,6.01-0.26,12.02-0.33,18.03c-0.01,0.49,0.08,1.15,0.39,1.46c2.28,2.24,0.43,3.94-0.59,5.83
		c-0.85,1.58-1.45,3.29-2.24,4.91c-0.43,0.88-1,1.69-1.53,2.51c-1.49,2.32-4.46,4.83-4.18,6.91c0.55,4.14,2.83,7.73,1.48,12.53
		c-1.01,3.61,0.58,7.9,0.73,11.9c0.17,4.58,0.01,9.17,0.01,13.76c0,2.11,0.17,4.22,0.04,6.32c-0.21,3.51,0.42,7.59-1.15,10.4
		c-2.62,4.71-3.22,8.35,0.19,12.46c0.61,0.74,1.12,1.64,1.44,2.55c1.41,3.95,2.73,7.94,3.78,11.05c-0.88,4.02-1.87,7.36-2.28,10.76
		c-0.53,4.33,1.36,6.36,6.23,7.13c-0.97,3.01-1.13,6.77-3.08,8.83c-3.74,3.96-3.86,8.41-2.32,12.51c1.45,3.84,2.73,7.59,3.69,11.6
		c1.33,5.51,0.75,10.3-2.39,14.89c-3.19,4.68-3.76,9.74-1.34,14.76c1.08,2.24,1.12,4.1,0.82,6.43c-0.25,1.91,0.07,4.21,0.97,5.89
		c4.73,8.85,6.29,18.06,4.24,27.92c-0.47,2.25-0.68,4.61-0.6,6.91c0.22,6.27,0.93,12.54,0.87,18.8c-0.03,2.61-1.15,5.24-4.76,5.89
		c-1.71,0.31-3.63,1.99-4.53,3.57c-0.88,1.56,0.04,3.1,2.1,4.2c2.43,1.29,3.47,6.21,1.9,7.74c-2.88,2.8-2.73,6.45-3.18,9.87
		c-0.16,1.2,0.96,2.59,1.58,3.86c1.5,3.08,4.08,6.05,4.36,9.23c0.55,6.22-0.26,12.55-0.29,18.84c-0.01,1.76,0.2,3.96,1.22,5.2
		c2.87,3.46,0.96,5.87-1.14,8.43c-0.4,0.49-1.13,0.95-1.16,1.46c-0.32,5.13-0.59,10.26-0.74,15.4c-0.13,4.19-0.1,8.38-0.1,12.57
		c0,3.05-1,6.7,0.32,9.02c2.4,4.23,2.64,7.73,1.67,12.54c-0.86,4.31,1.31,9.22,2.13,13.86c0.2,1.14,0.58,2.32,0.44,3.43
		c-0.37,3.03-1.34,6.02-1.4,9.04c-0.08,4,0.05,8.11,0.88,12c1.05,4.9-1.72,7.26-5.09,9.39c-4.55,2.88-6.09,10.39-3.34,14.98
		c2.7,4.51,6.04,9.49,4.09,14.79c-2.99,8.12-1.27,16.19-1.29,24.28c0,1.23,0.94,2.46,1.44,3.69c1.23,3.05,3.36,6.05,0,9.17
		c-2.12,1.97-1.02,4.19-0.35,6.46c0.45,1.53,0.38,3.26,0.29,4.88c-0.21,3.6-1.9,7.4,1.57,10.42c1.99,1.74,2.43,4.13,0.92,5.89
		c-2.93,3.38-0.96,6.56-0.65,9.99c0.81,8.8,4.67,17.1,3.97,26.15c-0.2,2.52,0.39,5.21,1.11,7.69c1.78,6.14,2.44,12.01-1.44,17.74
		c-1.01,1.49-0.78,3.75-1.44,5.55c-2.86,7.8,0.87,16.37-3,24.14c-0.96,1.93-0.37,4.75-0.14,7.13c0.42,4.55-1.44,8.96-4.47,9.17
		c-2.69,0.18-4.5,0.79-4.83,3.78c-0.33,2.92,1.53,3.78,3.79,4.52c3.12,1.03,4.8,2.85,5.38,6.54c1.35,8.56-0.18,17.79,5.38,25.46
		c0.13,0.18,0.19,0.53,0.12,0.74c-2.02,5.18,0,8.5,4.64,11c2.03,1.1,1.61,3.09-0.25,4.17c-3.62,2.12-5.54,7.89-3.64,11.57
		c2.48,4.81,7.14,8.31,8.31,13.91c0.09,0.41,0.74,0.69,1.09,1.07c3.04,3.26,2.84,5.78-0.81,8.52c-2.38,1.79-5.4,3-7.2,5.22
		c-3.77,4.65-7.08,6.48-11.97,3.28c-5.08-3.33-10.71-2.93-16-4.48c-4.03-1.18-8.77-1.06-12.12-3.19c-3.76-2.39-4.83,0.07-6.78,1.71
		c-1.86,1.56-3.26,3.21-2.1,5.95c1.34,3.19,2.43,6.49,3.6,9.69c1.41-0.12,2.46-0.41,3.43-0.25c3.88,0.65,7.53,1.91,11.7,0.24
		c2.36-0.95,5.59-0.2,8.32,0.33c3.61,0.71,7.08,2.09,10.68,2.92c3.22,0.75,6.48,1.71,9.58-0.9c0.79-0.67,2.65-0.19,4-0.05
		c1.77,0.17,3.51,0.55,5.27,0.8c3.71,0.53,7.32,1.78,8.05,5.79c0.85,4.63,6.08,8.22,3.38,13.58c-1.66,3.29-3.15,6.93-5.66,9.46
		c-3.05,3.07-6.33,5.32-5.93,10.51c0.13,1.65-2.55,3.52-3.93,5.3c-1.52,1.96-12.77,5.02-13.72,3.33c-2.21-3.91-6.68-6.45-7.01-11.48
		c-0.11-1.66-0.41-3.33-0.8-4.96c-0.83-3.47-3.02-4.95-6.68-5.08c-5.62-0.21-11.23-1.38-16.82-1.28c-4.65,0.08-9.53,0.77-13.82,2.44
		c-2.27,0.88-3.59,4.36-5.21,6.76c-1.99,2.95-1.68,5.87,1.28,7.44c3.05,1.61,2.75,3.87,2.47,6.54c-0.73,6.97-1.91,13.98-1.76,20.94
		c0.11,5.28,1.99,10.52,3.09,15.77c0.3-0.3,0.6-0.6,0.9-0.9c2.05,1.58,4.03,3.27,6.17,4.72c2.06,1.39,3.92,3.74,6.92,2.23
		c2.84-1.42,1.5-3.65,1.07-5.72c-0.88-4.14,0.08-7.81,2.86-11.02c2.28-2.63,8.57-3.6,11.63-1.82c2.54,1.48,5.09,3,7.77,4.18
		c2.38,1.04,5.32,2.08,6.04-1.87c0.67-3.71,3.29-4.49,6.24-5.23c1.31-0.33,2.5-1.22,3.81-1.39c4.8-0.63,9.62-1.1,14.44-1.51
		c0.42-0.04,0.93,0.78,1.37,1.23c2.39,2.45,4.72,3.12,8.18,1.4c3.09-1.54,6.1-4.85,10.61-1.49c1.48,1.1,4.99,3.73,8.33,0.24
		c1.87-1.95,5.56-2.38,8.54-2.96c2.42-0.47,5-0.2,7.51-0.16c2.72,0.04,4.47-1.65,6.66-2.89c3.63-2.07,8.03-2.89,12.17-3.96
		c3.1-0.8,6.4-0.87,9.44-1.8c3.26-0.99,6.95-0.38,9.81-3.13c3.3-3.17,7.3-3.34,11.4-1.32c2.74,1.35,5.2,0.8,7.62-0.98
		c1.73-1.27,3.53-2.64,5.52-3.32c8.22-2.79,16.49-3.07,24.55,0.64c1.66,0.77,3.41,1.82,4.52,3.21c2.59,3.26,4.82,3.99,8.61,2.2
		c0.76-0.36,1.57-0.73,2.39-0.83c5.01-0.6,10.03-1.22,15.06-1.63c1.74-0.14,3.7-0.08,5.27,0.57c3.62,1.5,5.37,0.91,7.44-2.73
		c0.58-1.02,1.93-2.23,2.95-2.25c6.49-0.16,12.99-0.04,19.49,0.03c6.43,0.07,12.94,0.79,19.28,0.07c4.71-0.54,9.01-1.23,13.39,1.18
		c0.94,0.52,3.12,0.15,3.88-0.63c2.74-2.8,5.79-2.7,9.24-2.06c2.49,0.47,5.57,1.37,7.49,0.37c2.7-1.41,4.44-0.69,6.78,0.22
		c3.43,1.33,6.75,2.56,10.55-0.09c3.34-2.33,7.75-2.58,11.41-0.72c2.53,1.29,4.52,3.84,6.42,6.1c1.41,1.68,2.51,1.44,3.26-0.11
		c1.85-3.87,4.17-6.9,8.98-6.53c3.88,0.3,7.76,0.68,11.63,1.12c0.37,0.04,0.77,0.66,1,1.1c2.7,5.11,6.13,6.28,11.55,4.65
		c3.61-1.09,7.5-1.23,11.19-2.11c3.64-0.87,7.16-0.24,10.75,0.05c1.12,0.09,2.66,0.16,3.36-0.47c5-4.51,11.64-3.13,17.4-4.89
		c8.34-2.56,17.39,0.84,25.91-1.91c0.56-0.18,1.28,0.11,1.92,0.16c5,0.35,10.04,1.25,14.98,0.88c4.4-0.33,7.71,1.8,11.42,3.12
		c0.74,0.26,1.58,1.11,1.8,1.86c0.87,2.94,2.62,4.13,5.69,3.63c2.55-0.42,6.19,0.37,7.49-1.06c2.3-2.54,5.04-2.67,7.71-3.66
		c1.67-0.62,3.41-1.48,4.66-2.69c3.02-2.91,8.21-2.82,9.11,0.66c0.62,2.37,0.98,3.92,3.8,3.26c1.92-0.44,4.29-0.27,5.71-1.35
		c4.66-3.55,10.8-3.33,15.02,0.68c1.03,0.98,3.03,1.44,4.53,1.35c2.9-0.18,5.5-2.98,8.74-0.33c3.58,2.93,6.46,0.66,9.03-1.97
		c0.53-0.55,0.75-1.54,1.36-1.85c2.2-1.13,4.44-2.33,6.81-2.88c0.73-0.17,2.39,1.5,2.81,2.63c2.21,5.86,11.56,8.69,16.65,5.02
		c5.69-4.1,10.87-8.72,18.94-8.48c4.44,0.14,15.96,4.79,17.36,9.54c0.82,2.78,2.49,2.92,4.78,1.93c2.35-1.01,4.66-2.27,7.13-2.81
		c2.58-0.56,5.04-1.77,8.04-0.36c4.86,2.29,9.24,0.64,13.73-2.24c2.95-1.89,7-2.92,10.53-0.36c2.83,2.06,5.51,1.54,8.35,0.15
		c0.73-0.36,1.71-0.62,2.46-0.45c7.49,1.69,14.88,1.55,22.43-0.05c3.75-0.8,7.81-0.1,11.73-0.16c4.73-0.07,9.47-0.11,14.2-0.39
		c3.29-0.2,6.57-0.75,9.84-1.2c2.12-0.29,3.11,0.68,3.41,2.71c0.49,3.23,1.07,6.44,1.6,9.58c9.73,0.33,9.73,0.33,8.91,5.83
		c-3.11,2.99-5.67,5.05-7.72,7.54c-1.6,1.95-0.19,4.47,2.44,4.73c1.8,0.18,3.63,0.02,5.45,0.04c4.7,0.05,5.99-1.33,6.76-6.02
		c0.36-2.19,1.65-4.23,2.58-6.31c1.15-2.58,3.16-5.07,3.37-7.72c0.27-3.48,2.17-4.64,4.77-5.64c2.37-0.91,4.94-1.47,7.07-2.76
		c3.34-2.03,14.6,0.38,16.32,3.84c0.22,0.45,0.24,1,0.36,1.51c1.22,5.42,2.39,10.85,3.69,16.25c0.79,3.26,1.45,6.62,2.8,9.65
		c0.76,1.71,2.81,2.85,4.28,4.24c1-1.3,2.02-2.58,2.98-3.92c1.96-2.73,3.86-5.5,5.84-8.22c1.91-2.63,4.4-4.97,3.38-8.78
		c-1.82-6.79,2.09-11.06,9.04-10.47c2.47,0.21,5.1-0.5,7.55-1.17c7.28-2.01,9-7.34,10.99-14.32c1.99-6.94,1.31-13.37,1.43-20.04
		c0.02-1.18-1.31-2.35-1.36-3.56c-0.18-4.14-0.07-8.3-0.07-13.08c-1.55,0.62-2.3,1.04-3.11,1.21c-1.04,0.22-2.13,0.24-3.2,0.35
		c-0.08-1.01-0.2-2.02-0.23-3.04c-0.1-3.57,0.9-7.66-0.53-10.58c-1.96-4.02-1.42-7.69-1.3-11.65c0.12-4.22-0.12-8.45-0.22-12.67
		c-0.06-2.54-0.25-4.8,1.86-7.11c2.32-2.54,4.12-5.86,5.2-9.15c1.22-3.72,1.24-7.83,2.08-11.7c0.97-4.5,0.35-5.33-3.8-7.4
		c-2.99-1.49-6.77-3.15-7.06-7.03c-0.51-6.68-1.51-13.66-0.15-20.06c2.27-10.72,1.98-21.47,2.6-32.22c0.06-1.08-0.19-2.38-0.78-3.25
		c-2.49-3.72-3.58-7.57-2.09-11.99c0.22-0.66-0.29-1.63-0.59-2.41c-1.14-2.98,0.41-10.24,2.59-11.96c2.93-2.3,2.92-6.47,0.14-8.91
		c-0.79-0.69-1.51-1.94-1.53-2.95c-0.06-3.61,0.03-7.25,0.41-10.84c0.18-1.7,0.65-3.96,1.83-4.83c2.01-1.48,3.73-2.95,2.43-5.27
		c-0.69-1.23-2.9-1.61-4.76-2.55c0-5.34-0.65-11.33,0.21-17.1c0.67-4.53,0.56-9.58,4.74-13.36c1.39-1.26,0.85-4.97,0.68-7.52
		c-0.12-1.85-1.01-3.68-1.67-5.47c-0.56-1.52-1.26-2.98-1.93-4.45c-0.93-2.06-2.6-4.09-2.67-6.17c-0.11-3.02,0.9-6.09,1.5-9.12
		c0.12-0.59,0.38-1.38,0.83-1.64c3.2-1.84,2.8-3.41,0.06-5.48c-2.8-2.11-4.37-7.8-2.66-9.67c2.97-3.26,1.78-5.67-0.79-8.32
		c-0.75-0.78-1.35-2.41-1.04-3.32c0.31-0.91,1.82-1.44,2.85-2.06c1.18-0.71,2.77-1.04,3.55-2.03c3.25-4.14,1.11-9.03,1.6-13.57
		c0.52-4.84-1.19-8.18-5.84-9.83c-2.3-0.82-2.58-2.43-1.7-4.33c0.69-1.49,1.62-2.89,2.6-4.22c1.62-2.2,2.76-4.21,0.51-6.84
		c-1.07-1.25-1.4-3.13-2.17-4.97c1.49-0.42,2.4-0.52,3.18-0.91c2.61-1.3,7.81-14.4,7.16-17.26c-0.89-3.96-4.42-3.5-7.02-4.24
		c-3.89-1.1-4.43-1.7-2.15-5.03c1.63-2.38,2.02-4.66,1.77-7.57c-0.49-5.53-0.01-11.15-0.42-16.69c-0.26-3.55,1.02-7.84-3.99-9.87
		c-2.39-0.97-2.93-3.6-1.37-5.94c1.06-1.58,2.31-3.19,3.84-4.26c2.1-1.47,2.13-2.5,0.77-4.69c-3-4.83-4.3-10.36-1.58-15.57
		c1.55-2.97,4.83-5,7.21-7.57c0.64-0.69,1.41-2.05,1.13-2.65c-2.87-6.25-3.5-12.81-3.39-19.58c0.02-1.61-0.78-3.75-1.96-4.77
		c-3.66-3.15-3.88-3.9-0.53-7.15c3.29-3.18,3.28-4.67,1.12-8.73c-0.95-1.78-1.02-4.07-1.28-6.15c-0.66-5.33,4.89-9.38,3.08-15.05
		c-0.84-2.61-1.2-5.39-1.69-8.11c-1.09-6.1-3.13-12.22,0.51-18.23c0.31-0.51,0.13-1.84-0.3-2.19c-3.46-2.79-1.18-6.2-1.15-9.35
		c0.04-3.72,1.04-7.74-0.08-11.04c-0.87-2.55-0.57-4.31-0.2-6.64c0.41-2.61,1.3-5.53-1.64-7.81c-3.81-2.95-4.09-6.03-1.18-9.65
		c0.77-0.96,2.41-1.2,3.33-2.09c3.41-3.32,3.98-7.49,3.38-12.03c-0.32-2.41-0.92-5.09-0.23-7.27c2.27-7.13-0.73-13.47-2.33-20.04
		c-0.69-2.84-3.17-6.37-2.21-8.28c2.24-4.49,2.02-8.72,1.11-13.12c-1.34-6.52,3.51-11.75,3.39-17.95c-0.03-1.42-0.12-3.09-0.85-4.19
		c-2.27-3.39-4.98-6.48-7.33-9.83c-4.26-6.08-3.62-9.62,1.8-14.67c1.01-0.94,1.5-3.4,1.03-4.73
		C974.53,215.23,972.78,213.24,971.6,211.39z M914.73,90.32c0.85,5.28,4.15,8.1,8.55,10.64c2.77-2.9,5.5-5.77,8.24-8.64
		c-0.18-0.41-0.36-0.82-0.54-1.24C925.83,90.84,920.67,90.6,914.73,90.32z M918.41,80.42c0.3,0.76,0.59,1.52,0.89,2.27
		c1.93-0.81,3.86-1.61,5.79-2.42c-0.35-0.62-0.87-1.82-1.04-1.77C922.15,79.04,920.29,79.76,918.41,80.42z"/>
	<path d="M462,65.77c2.47,2.6,4.43,4.26,5.72,6.34c0.28,0.46-2.03,3.58-2.85,3.46c-3.3-0.48-3.76-3.61-4.28-6.31
		C460.45,68.58,461.17,67.74,462,65.77z"/>
	<path class="st1" d="M914.73,90.32c5.94,0.28,11.1,0.52,16.25,0.76c0.18,0.41,0.36,0.82,0.54,1.24c-2.74,2.87-5.47,5.74-8.24,8.64
		C918.88,98.42,915.59,95.6,914.73,90.32z"/>
	<path class="st1" d="M918.41,80.42c1.87-0.67,3.73-1.38,5.65-1.91c0.17-0.05,0.68,1.15,1.04,1.77c-1.93,0.81-3.86,1.61-5.79,2.42
		C919.01,81.94,918.71,81.18,918.41,80.42z"/>
</g>
<g>
	<path class="st0" d="M448.22,586.81c-0.32-0.32-0.5-0.89-0.52-1.81c0,0,0,0-0.01,0C447.71,585.93,447.9,586.5,448.22,586.81z"/>
	<path class="st0" d="M447.69,585.01c-1.46,1.36-2.92,2.71-4.38,4.07C444.77,587.72,446.23,586.36,447.69,585.01
		C447.69,585.01,447.69,585.01,447.69,585.01z"/>
	<path class="st0" d="M447.74,584.81c1.89-0.77,3.8-1.54,6.52-2.63c-2.72,1.09-4.63,1.85-6.53,2.61
		C447.74,584.8,447.74,584.81,447.74,584.81z"/>
	<path class="st0" d="M452.31,586.89c0.31,0.01,0.61,0.05,0.9,0.15C452.93,586.94,452.62,586.9,452.31,586.89z"/>
	<path class="st0" d="M536.81,396.21c0.02-0.02,0.04-0.04,0.06-0.06C536.85,396.17,536.83,396.19,536.81,396.21z"/>
	<path class="st0" d="M534.56,403.62c0,0-0.14,0.15-0.14,0.14c0,0,0,0,0-0.01c0.5-2.41,0.44-5.05,1.93-7.03
		c-1.5,1.98-1.43,4.62-1.94,7.04L534.56,403.62z"/>
	<path class="st0" d="M539.67,335.72L539.67,335.72c-0.26,0.15-0.51,0.32-0.77,0.48C539.16,336.04,539.42,335.88,539.67,335.72z"/>
	<path class="st0" d="M447.3,583.46c0.15,0.45,0.29,0.89,0.43,1.33c0,0,0,0,0,0C447.59,584.35,447.45,583.91,447.3,583.46z"/>
	<path class="st0" d="M381.42,284.03c0.01-0.03,0.03-0.05,0.04-0.07C381.42,283.9,381.4,283.91,381.42,284.03z"/>
	<path class="st0" d="M575.07,843.59c-0.88-0.83-2.02-1.47-2.7-2.45c-10.28-14.83-25.67-24.44-37.92-37.22
		c-6.15-6.42-11.04-14.05-16.48-21.14c-0.55-0.72-0.83-1.68-1.46-2.31c-11.9-11.76-14.83-27.4-18.59-42.71
		c-0.98-3.97-2.57-7.79-3.75-11.71c-2.28-7.57-0.45-13.17,5.34-16.76c5.5-3.41,12.12-2.51,17.41,2.88c2.3,2.34,4.02,5.31,5.7,8.17
		c2.38,4.04,4.09,8.54,6.85,12.28c1.6,2.16,4.59,3.41,7.15,4.71c1.84,0.93,4.24,0.85,5.94,1.93c5.38,3.41,9.42,3.82,14.49,0.23
		c5.93-4.2,11.67-8.68,17.37-13.19c5.6-4.43,6.5-10.92,7.58-17.46c0.75-4.53,2.56-8.88,3.77-13.35c1.02-3.77,2.53-7.58,2.62-11.4
		c0.29-12.31,0.07-24.64-0.1-36.96c-0.03-2.09-0.47-4.26-1.19-6.23c-2.6-7.13-3.89-14.06-1.67-21.79c2-6.97-6.59-19.03-13.74-20.9
		c-3.93-1.03-10.28,3.49-10.37,7.57c-0.37,17.01-0.04,34.06-1.17,51.01c-0.71,10.62-0.52,21.57-4.67,31.74
		c-1.02,2.5-2.5,4.82-3.68,7.07c0.55,0.91,1.13,1.88,1.71,2.85c-1.18,0.17-2.36,0.39-3.55,0.49c-2.25,0.2-4.54,0.17-6.76,0.53
		c-7.29,1.18-10.96-2.25-10.59-9.54c0.17-3.29-0.55-6.62-0.73-9.94c-0.64-12.19,2.39-23.79,5.74-35.34
		c0.42-1.46,1.03-2.89,1.23-4.38c1.07-7.78,2.34-15.55,2.93-23.37c0.32-4.27-0.5-8.63-0.91-12.93c-0.17-1.8-0.55-3.59-0.95-5.36
		c-2.59-11.27,4.08-18.59,10.86-25.97c1.9-2.07,3.52-4.54,4.74-7.08c5-10.4,6.57-21.22,6.26-32.92
		c-0.39-14.79-7.36-26.25-14.88-37.83c-0.58-0.89-1.6-1.6-1.89-2.55c-2.48-7.97-8.76-10.2-16.11-10.91
		c-6.79-0.65-13.56-1.55-20.36-1.87c-6.83-0.33-13.69-0.01-20.53-0.1c-6.86-0.09-10.28-3.11-10.27-8.87
		c0-7.2,3.34-10.22,10.56-10.79c11.78-0.93,23.73-1.43,35.21-3.91c6.97-1.51,13.26-6.32,19.72-9.89c0.88-0.49,1.11-2.31,1.47-3.56
		c2.04-6.95,3.64-14.05,6.13-20.83c2.49-6.77,7.32-12.98,8.46-19.88c1.54-9.31,7.24-16.98,7.88-26.84
		c0.52-7.99-0.15-15.59-0.85-23.35c-0.25-2.72-0.9-5.46-0.73-8.15c0.79-12.98-1.51-25.59-5.79-37.62
		c-3.37-9.48-7.22-19.05-15.1-26.16c-2.47-2.23-4.41-5.02-6.66-7.49c-4.55-5.01-9.85-8.63-16.32-11.17
		c-10.86-4.26-21.52-9.14-31.85-14.56c-6.74-3.54-9.18-10.33-9.02-17.82c0.18-8.23-4.63-13.13-11.33-16.16
		c-4.46-2.02-9.48-2.98-14.35-3.86c-1.93-0.35-4.13,0.8-6.21,1.26c0,0.41,0.01,0.82,0.01,1.24c1.13,0.53,2.27,1.06,3.37,1.57
		c-0.46,2.32-0.52,4.74-1.5,6.71c-0.46,0.93-2.66,0.99-4.55,1.59c-0.32,1.58-0.77,3.77-1.22,5.93c8.22,2.63-0.61,7.9,2.08,11.61
		c-1.4-0.28-2.8-0.55-4.38-0.86c-0.37,2.52-0.72,4.88-1.1,7.48c1.33,0.52,2.53,1,4.74,1.87c-1.69,1.1-2.75,1.66-3.66,2.42
		c-1.07,0.9-1.97,1.99-2.98,2.97c-0.87,0.84-1.65,1.99-2.7,2.38c-14.82,5.52-29.68,10.92-44.53,16.37
		c-0.41,0.15-0.73,0.53-1.29,0.95c2.87,4.26-1.73,4.31-3.51,6.54c-0.65-1.14-1.09-1.92-1.63-2.87c-1.53,2.73-2.91,5.19-4.68,8.33
		c0.09,0.14,0.26,0.76,0.03,1.11c-3.4,5.15-7.47,9.94-10.24,15.4c-2.8,5.52-4.43,11.65-6.4,17.57c-1.01,3.05-1.62,6.22-2.56,9.92
		c2.05,2.25,0.09,5.14-0.97,8.09c-1.17,3.26-2.23,6.56-2.97,9.93c-2.26,5.59-4.52,11.19-6.78,16.78c0.24,0.34,0.48,0.68,0.72,1.02
		c2.57-1.3,5.15-2.61,7.72-3.91c0.46,0.28,0.92,0.57,1.38,0.85c-0.97,2.54-1.53,5.4-3.14,7.43c-0.53,0.68-3.75-0.77-5.84-1.27
		c-1.63,3.74-1.47,4.12,2.33,5.26c-3.26,8.59-3.17,17.01,1.98,24.73c3.62,5.43,6.76,10.78,6.57,17.57c-0.03,1.13,0.54,2.37,1.12,3.4
		c4.67,8.28,8.88,16.89,14.35,24.62c3,4.23,7.83,7.48,12.41,10.21c9.13,5.45,19.7,4.27,29.77,5.29c4.23,0.43,8.48,0.66,12.71,1.03
		c6.09,0.54,9.24,4.91,7.82,10.76c-0.25,1.01-0.89,2.26-0.54,3.03c2.61,5.66-0.8,9.51-3.94,13.54c2.03-0.24,2.14-0.2,5.53-9.07
		c1.38-3.59,2.17-7.41,3.22-11.13c0.39-0.03,0.78-0.06,1.18-0.08c0.22,1.49,0.06,3.19,0.76,4.4c0.98,1.7-2.08,5.27,2.43,5.44
		c0.11,0,0.74,3.32,0.05,4.41c-3.15,4.95-4.4,10.1-3.6,15.97c0.19,1.38-1.61,3.03-2.89,5.22c-0.64-5.17-1.14-9.16-1.47-11.83
		c-3.16,0-5.22-0.2-7.23,0.06c-1.54,0.2-3.11,0.79-4.49,1.54c-1.58,0.86-2.95,2.1-4.77,3.43c1.09,0.91,2.02,1.7,3.42,2.88
		c-1.35,1.02-2.57,1.94-4.13,3.11c-0.58-1.55-0.95-2.54-1.93-5.13c-7.49,8.09-14.25,15.34-20.94,22.66
		c-0.69,0.75-1.07,1.83-1.44,2.81c-1.62,4.28-2.34,8.8-6.44,12.01c-5.7,4.46-5.7,12.18-9.13,18.01c0,0,0.01,0,0.01,0
		c2.96-1.8,5.91-3.59,9.06-5.51c-0.63,5.16-1.24,5.5-9.06,5.51c0,0-0.01,0.01-0.01,0.01c0,0,0-0.01,0-0.01
		c-4.07,7.48-7.1,15.23-9.38,23.55c-2.49,9.11-7.4,17.54-10.87,26.42c-1.8,4.61-2.76,9.55-4.15,14.32
		c-5.24,18-7.17,36.59-9.73,55.05c-1.7,12.27-2.73,24.64-4.21,36.94c-0.23,1.91-1.46,3.69-1.79,5.6c-0.83,4.82-1.48,9.68-2.06,14.54
		c-0.32,2.68-0.04,5.45-0.6,8.07c-2.37,11.16-4.01,22.29-4.05,33.81c-0.03,9.96-1.5,19.98-3.13,29.84
		c-1.87,11.34-4.86,22.48-6.91,33.8c-1.46,8.06,0.63,15.68,4.9,22.62c0.55,0.9,1.8,1.95,2.74,1.96c15.4,0.22,30.84-4.97,31.53-24.79
		c0.22-6.49,2.21-12.9,2.68-19.4c0.94-12.82,1.27-25.68,2.05-38.52c1.16-19.11,2.44-38.21,3.77-57.31c0.17-2.4,0.84-4.79,1.49-7.13
		c2.44-8.81,3.55-17.73,4.38-26.87c1.01-11.1,4.43-21.96,6.6-32.97c1.67-8.47,2.89-17.04,4.58-25.51c1.04-5.2,2.56-10.3,3.92-15.43
		c0.5-1.91,1.45-3.74,1.68-5.66c1.13-9.5,4.72-17.69,11.25-24.88c2.64-2.91,3.74-7.23,5.5-10.93c2.39-5.05,5.25-9.96,6.98-15.23
		c2.96-8.99,9.08-15.43,16.04-21.12c9.81-8.02,20.4-15.01,33.15-17.22c6.07-1.05,12.5-1.34,18.6-0.59
		c11.09,1.36,22.41,2.51,32.38,8.35c7.95,4.66,8.97,9.69,3.87,17.45c-0.25,0.37-0.46,0.78-0.62,1.2c-2.98,8.16-5.18,9-14.08,9.22
		c-10.41,0.26-20.78,1.66-31.17,2.54c-2.86,0.24-5.75,0.29-8.61,0.55c-4.94,0.44-10.29-0.09-14.7,1.7
		c-7.85,3.18-12.32,10.09-13.3,18.41c-1.16,9.91-1.53,19.93-1.91,29.91c-0.19,4.98,0.59,9.77,3.14,14.42
		c1.83,3.32,2.78,7.47,2.93,11.3c0.41,10.02,0.58,20.09,0.06,30.1c-0.4,7.62,0.86,14.3,7.33,20.53c-2.8,1.15-4.86,2-7.71,3.17
		c-0.56,9.58,0.94,20.07,3.16,30.44c1.87,8.75,4.51,17.33,6.54,26.05c0.87,3.75,2.01,6.63,6.59,6.3c0.48-0.04,1.01,0.51,2.37,1.24
		c-6.3,3.21-4.58,7.14-2.34,11.82c5.72,12,10.64,24.38,16.44,36.34c2.63,5.42,6.01,10.76,10.11,15.12
		c7.5,7.97,13.24,17.34,20.74,25.22c9.73,10.24,19.89,20.09,29.87,30.1c2.47,2.48,4.82,5.08,7.45,7.38c2,1.75,4.25,3.26,6.55,4.6
		c2.62,1.52,5.41,2.73,8.14,4.05c6.82,3.27,13.76,4.59,20.82,0.84c11.66-6.19,11.75-16.84,4.38-25.87
		C584.6,851.72,579.59,847.85,575.07,843.59z M565.5,602.59c0.49,0.17,0.98,0.33,1.47,0.5c-0.8,8.66-0.8,8.66-3.75,8.97
		C564.02,608.73,564.76,605.66,565.5,602.59z M564.48,671.67c0.47,0.24,0.95,0.48,1.42,0.72c0.53,4.33-0.21,5.51-4.57,6
		C562.51,675.88,563.5,673.78,564.48,671.67z M564.13,681.91c-1.39,3.8-2.65,7.22-3.9,10.64c-0.53-0.21-1.05-0.42-1.58-0.63
		C557.62,687.76,560.15,682.36,564.13,681.91z M558.06,718.07c-1.85,2.74-3.29,4.88-5.11,7.58
		C550.79,720.2,552.18,718.3,558.06,718.07z M336.58,805.58c0.9-2.2,1.81-4.39,2.71-6.59c0.54,0.22,1.08,0.44,1.62,0.67
		C341.46,802.5,340.53,804.75,336.58,805.58z M364.38,639.13c-0.69,1.03-1.82,1.76-2.96,2.78c-1.02-1.43-1.71-2.38-3.14-4.38
		c2.31-0.27,3.87-0.57,5.42-0.53C363.98,637,364.66,638.72,364.38,639.13z M364.81,631.01c-2.43-5.84,0.01-11.15,3.74-10.61
		C367.3,623.94,366.05,627.47,364.81,631.01z M373.27,596.24c-0.42-0.29-0.85-0.58-1.27-0.88c2.34-4.37,4.68-8.75,7.02-13.12
		c0.41,0.23,0.82,0.45,1.23,0.68C379.41,588.18,377.33,592.75,373.27,596.24z M380.74,579.87c-0.41-0.22-0.83-0.44-1.24-0.66
		c0.92-4.83,2.14-9.52,6.28-12.73c0.58,0.33,1.17,0.66,1.75,0.99C385.27,571.6,383,575.73,380.74,579.87z M396.93,540.99
		c-0.51-0.24-1.02-0.48-1.53-0.72c0.18-5.57,3.73-9.49,7.58-13.23C400.96,531.68,398.95,536.33,396.93,540.99z M407.85,519.37
		c-0.52-0.46-1.04-0.92-1.56-1.38c3.58-4.13,7.16-8.26,10.74-12.39c0.62,0.55,1.23,1.09,1.85,1.64
		C415.2,511.28,411.53,515.33,407.85,519.37z M386.79,335.96c-0.32-3.45-0.42-7.08,0.3-10.43c4.88-22.86,23.97-38.05,47.46-38.06
		c7.19,0,10.04,2.83,10.49,10.09c0.72,11.8,1.53,23.6,2.38,35.4c0.4,5.62-2,9.51-7.37,10.99c-2.61,0.72-5.38,1.28-8.07,1.22
		c-7.88-0.15-15.75-0.65-23.62-1.01c0,0.07-0.01,0.15-0.01,0.22c-1.98,0-3.95-0.01-5.93,0c-1.98,0.01-3.96,0.13-5.93,0.05
		C391.23,344.21,387.25,340.94,386.79,335.96z M443.61,417.38c-0.09,5.2-3.16,9.39-8.01,9.39c-11.54-0.01-22.58-1.92-31.63-10.22
		c-8.18-7.5-11.65-17.13-13.42-27.62c-1.29-7.62,2.37-11.93,10.22-12c11.8-0.1,23.61-0.05,35.42,0.03c5.34,0.03,8.86,3.98,8.43,9.13
		c-0.52,6.17-1,12.34-1.5,18.51c0.17,0.01,0.34,0.02,0.51,0.04C443.63,408.88,443.69,413.13,443.61,417.38z M444.59,430.88
		c0.93-2.29,1.48-4.12,2.41-5.73c0.43-0.74,1.57-1.16,2.47-1.47c0.19-0.06,1.21,1.25,1.08,1.47
		C449.18,427.45,449,431.06,444.59,430.88z M448.35,399.33c-0.17-2.36-0.34-4.71-0.51-7.07c0.84-0.15,1.68-0.3,2.52-0.45
		c0.61,2.12,1.33,4.22,1.67,6.38C452.07,398.37,449.64,398.94,448.35,399.33z M482.43,441.95c0.36-2.97-1.47-6.97,3.32-8.37
		C488.23,438.12,484.75,439.81,482.43,441.95z M481.08,302.3c0.1-7.98,2.78-11.24,10.62-10.28c6.36,0.78,12.51,3.22,18.76,4.9
		c12.27,3.3,17.77,12.36,20.48,23.87c0.9,3.83,1.89,7.66,3.16,11.39c0.31,0.92,1.82,1.48,2.83,2.11c0.44,0.27,0.89,0.51,1.36,0.74
		c0.46,0.23,0.93,0.45,1.39,0.69l0,0h0c-0.26,0.15-0.51,0.32-0.77,0.48c-0.76,0.49-1.52,1-2.34,1.34c-1.56,0.65-3.24,1-4.82,1.61
		c-3.16,1.23-6.18,3.22-9.44,3.69c-4.47,0.64-9.1,0.16-13.66,0.16c0-0.15,0-0.31,0-0.46c-4.71,0-9.43,0.15-14.14-0.03
		c-9.35-0.36-14.04-5.07-14.03-14.35C480.49,319.54,480.98,310.92,481.08,302.3z M472.33,344.94c1.68,5.28-2.27,6.25-5.38,8.18
		c-1.33-5.09-2.68-9.75-3.7-14.49c-0.25-1.15,0.38-2.66,0.99-3.79c1.21-2.25,2.68-4.36,4.1-6.62c1.7,0.68,3.32,1.32,4.57,1.82
		c-0.12,2.42-0.28,4.08-0.26,5.74c0.03,1.61,0.41,3.22,0.35,4.82C472.94,342.06,471.94,343.69,472.33,344.94z M476.21,397.67
		c-0.08-4.19,0.21-8.54-0.81-12.53c-2-7.86,0.84-12.48,9.16-12.53c12.28-0.08,24.58,0.08,36.85,0.51
		c8.33,0.29,12.46,5.11,12.52,13.54c0.02,2.31,0.2,4.62,0.34,7.64c2.05-1.39,3.29-2.23,5.36-3.63c-0.46,2.12-0.36,3.94-0.99,4.24
		c-0.24,0.12-0.47,0.24-0.69,0.37c-0.43,0.26-0.79,0.55-1.1,0.86c-0.02,0.02-0.04,0.04-0.06,0.06c-0.17,0.17-0.31,0.34-0.45,0.53
		c-1.49,1.97-1.43,4.62-1.93,7.03c1.36-1.79,2.72-3.57,4.08-5.36c0.47,0.23,0.93,0.45,1.4,0.68c-1.24,3.96-2.08,8.11-3.81,11.84
		c-4.49,9.69-4.64,9.62-6.41,9.6c1.61-5.58,3.24-11.24,4.87-16.9c-1.16,2.44-2.3,4.9-3.5,7.32c-5.76,11.63-13.35,20.4-28.1,18.31
		c-2.38-0.34-4.9-0.32-7.27,0.06c-2.17,0.35-4.21,1.45-6.33,2.18c-1.27,0.44-2.57,0.81-5.11,1.61c1.39-2.17,1.97-3.09,2.57-4.03
		c-9.52-4.3-10.75-6.24-10.71-16.84C476.13,407.39,476.31,402.52,476.21,397.67z M513.42,490.15c-0.58-0.2-1.15-0.39-1.73-0.59
		c-0.29-2.18-1.5-4.78,3.42-5.35C514.43,486.6,513.92,488.37,513.42,490.15z M451.06,579.39c0.88,0.77,1.56,1.36,3.2,2.79
		c-2.72,1.09-4.63,1.85-6.52,2.63c0.01,0.04,0.03,0.08,0.04,0.11c-0.03,0.03-0.06,0.05-0.08,0.08c0.02,0.92,0.21,1.49,0.52,1.81
		c0.84,0.85,2.54,0.03,4.09,0.07c0.31,0.01,0.61,0.05,0.9,0.15c-2.36,4.59-5.85,3.43-9.91,2.04c1.46-1.36,2.92-2.71,4.38-4.07
		c0-0.06-0.01-0.11-0.01-0.18c-0.01-0.01,0.1,0.1,0.1,0.1l-0.1-0.11c0.02-0.01,0.04-0.02,0.06-0.02c-0.14-0.44-0.29-0.89-0.43-1.33
		c-0.48-1.47-0.97-2.99-1.52-4.67c3.26-1.12,3.95-3.6,3.67-7.24c-0.36-4.68,3.88-10.58,7.61-11.87
		C455.03,566.35,453.01,573,451.06,579.39z M533.1,719.87c0.31-1.4,0.07-2.92,0.07-4.38c0.62-0.15,1.25-0.3,1.87-0.45
		c0.52,1.96,1.79,4.12,1.33,5.81c-0.42,1.56-2.7,2.62-4.16,3.89c-0.3-0.33-0.59-0.67-0.89-1
		C531.93,722.45,532.8,721.22,533.1,719.87z M539.56,499.52c-1.92,2.07-3.59,3.86-6.13,6.6
		C532.9,500.17,535.05,498.17,539.56,499.52z M524.1,551.94c1.71-2.81,3.2-5.78,5.14-8.42c0.61-0.83,2.63-1.4,3.52-1
		c0.76,0.34,1.51,2.84,1.07,3.35c-3.2,3.72-6.66,7.22-10.16,10.67c-0.48,0.48-1.66,0.25-2.87,0.38
		C522.19,554.83,523.2,553.42,524.1,551.94z M516.01,626.92c-0.65,1.61-1.17,2.9-2.22,5.47c3.15-1.01,5.21-1.67,7.25-2.32
		c-0.19,3.06-0.32,5.97-0.61,8.86c-0.06,0.62-0.67,1.62-1.12,1.68c-0.77,0.1-1.87-0.18-2.36-0.72c-0.69-0.76-0.95-1.91-1.39-2.89
		c-0.27,0.06-0.54,0.12-0.81,0.18c-0.3,6.55-0.6,13.09-0.89,19.55c-3.23,2.27-6.68,4.69-9.88,6.94c-0.35-2.46-0.02-5.1-1.12-6.83
		c-3.09-4.87-2.59-6.8,2.99-9.24c1.36-0.6,2.95-1.81,3.34-3.08c0.24-0.79-1.59-2.2-2.81-3.75
		C510.94,637.49,506.09,627.6,516.01,626.92z M481.92,635.62c-1.25-4.15-1.88-8.55-2.23-12.88c-0.41-5.13,0.25-10.36-0.39-15.45
		c-0.85-6.74,0.76-12.55,4.48-18.06c4.29-6.37,11.54-7.19,17-1.71c7.38,7.42,9.15,16.79,9.32,27.3c-0.28,3.09-0.35,6.76-1.02,10.31
		c-0.67,3.54-1.77,7.03-3,10.43c-2.19,6.06-7.74,10.09-13.34,10.02C487.51,645.51,484.03,642.64,481.92,635.62z M490.27,677.29
		c1.12-1.61,2.39-3.11,3.63-4.64c0.62,0.56,1.23,1.12,1.85,1.68c-1.4,1.5-2.8,3-4.2,4.49C491.1,678.3,490.17,677.44,490.27,677.29z"
		/>
	<path class="st0" d="M327.07,601.8c-0.42-13.2-2.09-26.36-2.36-39.55c-0.24-11.22,4.01-21.33,10.44-30.48
		c0.52-0.74,1.17-1.45,1.48-2.27c3.81-10.13,12.47-13.4,21.91-15.59c3.23-0.75,7.5-0.22,7.95-4.98c0.65-6.81-2.07-10.59-7.65-11.95
		c-5.9-1.43-11.92-2.63-17.56-4.8c-5.26-2.02-9.68-0.61-13.67,2.1c-5.5,3.73-11.12,7.62-15.54,12.49
		c-3.25,3.58-4.68,8.83-6.91,13.33c0.43,0.26,0.87,0.53,1.3,0.79c5.35-5.82,7.51-14.62,16.21-18.75
		c-7.39,12.34-14.21,23.72-21,35.04c3.15,3.04,1.77,5.05-1.3,7.05c-0.76-1.2-1.42-2.25-2.18-3.46c-0.37,0.45-0.78,0.74-0.87,1.1
		c-0.85,3.79-1.79,7.58-2.42,11.41c-1.06,6.41-2.7,12.85-2.68,19.28c0.03,13.48,1.42,26.97,1.42,40.45
		c0.01,15.58,0.65,31.3-4.57,46.44c-1.07,3.11-1.27,6.53-1.77,9.82c-0.67,4.43-2.06,8.45-6.83,9.86c-4.95,1.46-7.93-1.4-10.54-5.2
		c-1.97-2.87-4.31-5.5-6.63-8.12c-6.34-7.15-10.04-15.65-11.89-24.81c-1.7-8.41-3.28-17.02-3.32-25.55
		c-0.05-11.82,1.82-23.39,7.24-34.41c3.06-6.23,3.28-13.79,5.49-20.52c1.73-5.24,4.59-10.1,6.9-15.15
		c2.89-6.33,5.71-12.69,8.57-19.03c1.3-2.89,2.37-5.92,3.98-8.63c4.02-6.76,8.32-13.36,12.45-20.05c0.43-0.7,0.75-1.64,0.71-2.44
		c-0.23-4-0.67-8-0.9-12c-0.59-10.29-0.94-20.59-1.76-30.86c-0.19-2.44-1.78-4.78-2.81-7.13c-3.72-8.46,0.22-15.18,9.5-15.32
		c4.13-0.06,7.46-1.16,11.04-3.08c9.77-5.27,20.39-3.9,30.83-2.88c8.41,0.82,12.87-4.49,10.76-12.73c-1.04-4.07-4.11-4.39-7.16-4.84
		c-10.14-1.49-20.29-3.06-30.48-4.09c-5.24-0.53-10.58-0.02-15.87,0.04c-14.67,0.16-29.35,0.67-44.02,0.33
		c-5.14-0.12-10.23-3.28-15.36-3.33c-11.37-0.1-22.77,0.69-34.11,1.67c-1.53,0.13-2.98,3.3-4.14,5.26c-1.16,1.96-1.9,4.16-3.34,7.41
		c-1.03-2.4-1.48-3.45-1.93-4.51c-2.13,4.89-2.11,9.82-0.59,14.44c3.56,10.88,3.75,10.72,15.13,10.88
		c8.65,0.12,17.34,0.04,25.93,0.89c8.64,0.86,14.21,6.08,17.08,14.4c6.48,18.79,7.21,24.72,4.9,44.59c1.7,0.93,4.48,1.75,4.5,2.63
		c0.04,1.66-1.25,3.64-2.55,4.9c-0.47,0.45-2.57-0.77-5.2-1.67c-2.11,4.42-4.55,9.49-6.95,14.58c-2.51,5.33-5.08,10.64-7.43,16.04
		c-1.46,3.34-4.16,6.65-1.99,9.35c-2.22,4.48-4,8.21-5.9,11.88c-1.6,3.08-3.42,6.04-5,9.13c-1.17,2.29-2.48,4.6-3.07,7.06
		c-4.1,17.08-9.48,33.92-9.9,51.72c-0.14,5.75-1.75,11.61-1.09,17.22c1.62,13.73,3.09,27.38,10.46,39.99
		c5.81,9.94,12.66,18.36,21.34,25.71c4.73,4.01,8.61,9,13.07,13.36c1.46,1.42,3.4,2.86,5.33,3.21c8.79,1.62,17.62,3.17,26.5,4.12
		c5.9,0.63,10.79-1.71,15.55-5.82c11.77-10.16,14.33-24.64,19.11-38.06c3.64-10.22,4.99-20.88,4.66-31.84
		C327.07,632.53,327.56,617.15,327.07,601.8z M256.81,444.9c-0.31-0.54-0.63-1.09-0.94-1.63c2.85-1.36,5.7-2.72,8.54-4.08
		c0.28,0.53,0.56,1.06,0.83,1.59C262.43,442.15,259.62,443.53,256.81,444.9z M256.72,503.19c1.18,5.32-0.4,9.34-4.33,11.53
		C249.32,510.11,250.29,507.4,256.72,503.19z M254.55,517.43c-1.58,2.16-2.73,4.09-4.27,5.65c-0.52,0.53-2.2,0.47-2.98,0.02
		c-0.87-0.5-1.75-1.69-1.86-2.66C245.31,519.14,252.27,516.59,254.55,517.43z M216.48,602.35c0.04-0.53,0.64-1.22,1.18-1.47
		c1.63-0.76,3.33-1.34,4.96-1.97c0.97,3.56-0.83,5.68-4.82,4.63C217.26,603.4,216.45,602.72,216.48,602.35z M221.74,607.53
		c0.24-0.22,1.52,0.69,2.33,1.07c-1.23,1.45-2.46,2.89-3.69,4.34c-0.63-0.51-1.26-1.02-1.89-1.53
		C219.55,610.08,220.51,608.66,221.74,607.53z M221.71,645.86c-0.48,0.19-1.55-1.13-3.08-2.34c1.83-1.27,2.86-2.47,4-2.58
		c0.69-0.07,1.54,1.55,2.33,2.41C223.89,644.23,222.93,645.38,221.71,645.86z M227.3,583.94c0.73,3.84-1.22,5.04-3.49,6.84
		c-2.88-6.57,0.12-15.2,5.95-15.58C228.8,578.31,226.81,581.36,227.3,583.94z M236.04,645.08c-0.63,0.18-2.46-1.28-2.38-1.58
		c0.76-2.59,1.93-4.97,5.37-4.62C240.48,642.28,239.03,644.22,236.04,645.08z M238.53,551.41c-1.85,4.25-2.92,8.84-4.65,13.15
		c-1.26,3.13-2.68,6.49-8.19,6.38c2.05-3.56,4.01-6.25,5.22-9.24c1.9-4.72,2.15-10.15,6.37-13.84c0.46-0.4,0.31-1.44,0.59-2.12
		c2.68-6.43,5.32-12.88,8.18-19.23c0.3-0.66,1.94-0.71,2.96-1.05c0.11,0.89,0.59,1.96,0.27,2.66
		C245.75,535.9,241.94,543.57,238.53,551.41z M285.95,689.16c-0.56,1.08-2.68,1.35-4.08,2c-0.13-0.44-0.27-0.88-0.4-1.32
		c3.34-6.07,6.68-12.14,10.02-18.21c0.53,0.24,1.06,0.49,1.59,0.73C292.27,678.51,288.76,683.74,285.95,689.16z M296.44,642.98
		c-0.21-0.49-0.41-0.98-0.62-1.46c1.4-0.44,2.84-0.78,4.18-1.37c0.93-0.41,1.7-1.15,2.55-1.74c-0.79-0.62-1.51-1.4-2.4-1.82
		c-1.07-0.51-2.28-0.71-3.6-1.09c0.61-1.11,0.83-2.02,1.21-2.1c3.63-0.71,5.96-3.03,8.06-5.84c0.16-0.22,2.42,0.43,2.65,1.05
		C311.82,637.8,306.19,644.45,296.44,642.98z"/>
	<path class="st0" d="M962.59,566.83c-1.52-5.18-4.02-10.11-6.43-14.98c-3.69-7.48-7.37-15.01-11.63-22.17
		c-3.85-6.48-8.03-12.87-12.86-18.64c-12.68-15.15-25.66-30.05-38.77-44.83c-9.07-10.22-18.64-19.99-27.78-30.16
		c-2.81-3.13-4.82-6.96-7.41-10.32c-2.74-3.56-5.76-6.89-8.58-10.38c-13.72-17.03-27.44-34.05-41.1-51.13
		c-3.37-4.22-6.62-8.54-9.75-12.94c-4.54-6.38-8.57-13.16-13.53-19.18c-2.21-2.69-6.01-4.41-9.43-5.59
		c-1.33-0.45-4.27,1.4-5.27,2.97c-1.67,2.61-2.33,5.85-3.49,8.8c-1.69,4.3-3.27,8.66-5.26,12.81c-0.58,1.21-2.41,1.83-2.59,3.04
		c-0.73,2.38-1.06,4.99-2.26,7.1c-5.49,9.72-11.16,19.34-16.93,28.9c-0.86,1.43-2.63,2.3-3.9,3.52c-0.7,0.67-1.2,1.56-1.85,2.29
		c-0.65,0.74-1.26,1.66-2.1,2.08c-2.3,1.16-3.7,2.52-2.43,5.31c0.27,0.6,0.28,1.67-0.09,2.16c-3.65,4.84-7.41,9.6-11.99,13.84
		c0.15-0.93,0.29-1.86,0.58-3.71c-1.6,2.05-2.67,3.43-3.79,4.86c0.76,0.72,1.44,1.36,2.12,2.01c-1.7,1.59-3.41,3.18-5.11,4.77
		c0.18,0.08,0.37,0.16,0.55,0.24c-1.8,2.76-3.49,5.6-5.42,8.27c-3.03,4.19-6.3,8.21-9.34,12.4c-9.14,12.63-18.23,25.3-27.29,37.99
		c-1.75,2.45-3.27,5.07-4.96,7.57c-3.37,4.99-7,9.82-10.11,14.97c-3.45,5.72-6.4,11.75-9.63,17.6c-0.72,1.3-1.73,2.45-2.63,3.64
		c-1.88,2.5-3.78,4.99-5.67,7.48c0.26,0.34,0.52,0.68,0.79,1.01c1.17-0.49,2.35-0.99,3.51-1.48c0.61,5.72-0.8,9.67-6.64,12.75
		c-3.56,1.87-5.91,6.85-7.8,10.9c-3.32,7.13-5.78,14.66-8.84,21.93c-0.53,1.25-2.25,1.99-3.37,2.91c5.57,2.99,9.83,0.98,14.21-3.36
		c5.69-5.63,12.47-10.17,18.05-15.88c4.98-5.1,9.09-11.09,13.37-16.84c4.34-5.84,8.69-11.7,12.56-17.85
		c5.7-9.07,11.16-18.31,16.36-27.67c2.45-4.41,5.66-7.1,10.68-7.3c17.29-0.69,34.58-1.23,51.86-1.96c17.57-0.74,35.12-2,52.69-2.33
		c15.94-0.3,31.9,0.41,47.85,0.55c6.07,0.05,12.15-0.28,18.22-0.32c4.97-0.03,8.46,2.08,11.04,6.61c2.46,4.31,5.81,8.14,9.02,11.97
		c0.73,0.87,2.49,0.89,3.8,1.22c1.26,0.32,2.55,0.53,3.83,0.79c-0.04,0.44-0.08,0.89-0.11,1.33c-0.99,0.64-1.99,1.29-3.18,2.06
		c0.51,0.92,0.88,1.92,1.52,2.71c5.12,6.34,10.17,12.73,15.47,18.92c5.23,6.1,10.72,11.97,16.07,17.97c1.31,1.47,2.81,2.89,3.7,4.61
		c3.52,6.78,9.5,10.96,15.62,14.89c2.1,1.35,4.93,2.13,7.45,2.19C960.42,577.92,964.39,572.97,962.59,566.83z M839.71,462.99
		c-1.64,0.64-3.57,0.71-5.37,0.74c-6.37,0.12-12.75,0.14-19.13,0.15c-9.54,0.01-19.09-0.04-28.63-0.04
		c-7.08-0.01-14.16-0.04-21.24,0.04c-7.03,0.08-13.82,2.85-21.17,0.45c-3.96-1.29-9.04-1.13-11.93,3.93
		c-0.82,1.44-2.94,2.15-4.49,3.21c-1.27-3.66-1.53-6.8-3.19-8.71c-3.69-4.21-3.72-7.11-0.02-11.38c4.54-5.24,9.07-10.63,12.66-16.52
		c9.68-15.86,20.58-30.75,33.3-44.27c4.41-4.69,10-4.99,15.15-1.07c2.28,1.74,4.36,3.79,6.3,5.91c9.43,10.24,19.99,19.73,27.79,31.1
		c6.54,9.53,14.88,17.11,22.09,25.82C845.51,456.77,845.17,460.88,839.71,462.99z"/>
	<path class="st0" d="M804.51,766.99c0.93-8.8-0.45-17.83-0.53-26.76c-0.13-14.85-0.34-29.7,0.03-44.54
		c0.32-13.04,1.23-26.01-1.79-38.91c-1.66-7.08-2.8-14.3-3.75-21.51c-0.43-3.26-1.6-6.27,5.02-6.36
		c12.76-0.18,25.46-3.24,38.25-4.24c9.95-0.78,17.31-6.03,24.53-11.85c6.29-5.07,10.03-11.72,10.74-19.89
		c0.9-10.28,2.4-20.56,2.41-30.84c0.01-7.6-1.92-15.2-3.06-22.79c-0.4-2.67-0.76-5.4-1.58-7.96c-1.65-5.11-5.24-7.46-10.59-7.39
		c-1.97,0.02-3.95,0.03-5.92,0c-4.7-0.07-8.77,4.91-8.08,9.6c0.86-1.09,1.85-2.33,2.83-3.57c0.56,0.61,1.71,1.52,1.58,1.79
		c-0.76,1.54-1.82,2.94-2.78,4.38c-0.6,0.89-1.58,1.71-1.75,2.67c-0.51,2.83-0.7,5.72-1.03,8.75c1.17-0.6,2.32-1.19,4.51-2.31
		c0,3.72,0,6.62,0,10.59c-2.08-1.08-3.47-1.79-5.3-2.74c-0.66,5.67-0.68,11.8-2.24,17.5c-1.55,5.66-4.65,10.9-7.17,16.54
		c0.7,0.14,2.34,0.47,4.79,0.95c-1.86-4.39-0.75-6.94,2.89-8.33c2.29,3.21-1.65,11.09-5.3,10.02c-5.98-1.75-10.71,1.48-16.04,1.96
		c-11.99,1.09-17.49-2.84-21.5-14.27c-4.23-12.03-3.8-24.49-4.49-36.87c-0.5-8.92-0.83-17.86-1.52-26.77
		c-0.18-2.32-1.23-4.66-2.27-6.8c-3.02-6.19-9.78-8.95-16.05-6.3c-1.24,0.52-1.69,2.91-2.75,4.91c-7.85,3.89-2.44,12-4.79,17.71
		c2.03,0.35,3.51,0.61,5,0.87c-0.22,0.99-0.11,2.49-0.72,2.87c-1.24,0.78-2.87,0.97-5.19,1.66c0.75,6.98,1.58,14.66,2.43,22.52
		c4.82-1.79-0.23-10.37,8.41-9.71c-0.23,2.04,0.35,5-0.84,6.21c-7.46,7.57-7.77,16.62-6.58,26.27c0.61,4.94,0.67,9.96,0.95,14.59
		c0.97,1.5,2.05,2.81,2.64,4.31c0.17,0.44-1.06,2.05-1.61,2.03c-1.08-0.04-2.13-0.85-3.57-1.52c-13.18,4.57-25.75,1.98-36.71-7.31
		c-7.88-6.68-13.92-14.59-15.02-25.66c-0.87-8.73-2.84-17.37-4.77-25.96c-0.6-2.7-2.43-7.08-4.04-7.23
		c-4.27-0.41-9.78-0.34-12.9,2.04c-10.12,7.71-13.1,18.58-10.84,31.08c0.85,4.73,1.21,9.6,1.26,14.41
		c0.06,5.21,1.25,9.75,4.45,13.99c4.9,6.5,9.41,13.3,14.06,19.99c8.1,11.64,19.36,16.99,33.4,17.24c8.18,0.14,16.37,0.62,24.53,1.21
		c6.08,0.43,8.56,3.47,8.56,9.34c-0.01,11.65,0.05,23.3,0.25,34.95c0.02,0.94,1.29,2.58,2.08,2.64c2.83,0.22,5.16,1.1,4.47,4.15
		c-0.16,0.7-3.33,0.71-5.47,0.96c0,9.59-0.18,18.5,0.05,27.41c0.23,9.09,0.87,18.18,1.32,27.02c1.84,0.88,3.21,1.54,5.34,2.56
		c-5.6,3.25-3.54,7.48-3.54,11.73c-0.01,10.13-1.05,20.25-1.67,30.37c-0.17,2.7-0.31,5.4-0.46,7.97c1.61,0.27,3.01,0.5,4.41,0.73
		c-0.91,1.16-1.89,2.27-2.69,3.5c-0.52,0.79-1.13,1.76-1.1,2.62c0.25,6.67,0.57,13.34,1.01,20c0.4,6.03,1.08,12.04,1.46,18.07
		c0.45,7.27,0.71,14.55,1.08,22.51c1.6-0.88,2.7-1.54,3.84-2.1c1.12-0.55,2.27-1.11,3.47-1.42c0.21-0.05,1.14,1.57,1.05,1.65
		c-0.92,0.84-1.98,1.52-2.43,1.84c-0.2,1.96-0.36,3.47-0.52,4.98c-1.31-0.26-2.61-0.53-4.11-0.83c1,2.87,1.58,6.13,3.21,8.73
		c1.46,2.34,3.84,5.15,6.23,5.61c3.73,0.73,6.43-2.19,7.64-5.84c1.14-3.45,2.35-6.92,3.05-10.48c3-15.29,3.6-30.75,2.56-46.26
		C804.24,795.45,802.99,781.33,804.51,766.99z M861.13,526.34c0.09,0.37,0.19,0.74,0.28,1.11c-0.98,0.93-1.96,1.86-3.01,2.84
		c-1.31-1.44-2.27-2.49-3.59-3.95C857.29,526.34,859.21,526.34,861.13,526.34z M848.29,568.73c0.09-0.55,2.35-0.74,4.2-1.26
		c-0.95,2.84-1.53,4.54-2.1,6.24c-0.53,0.09-1.07,0.19-1.6,0.28C848.56,572.23,848.01,570.41,848.29,568.73z M788.08,832.6
		c-0.68,1.1-2.52,1.95-3.86,2c-0.73,0.02-1.52-1.89-2.28-2.93c1.15-0.63,2.31-1.26,3.48-1.9c-0.89-3.88-0.89-3.88,6.35-5.69
		C790.3,827.6,789.5,830.29,788.08,832.6z"/>
	<path class="st0" d="M775.47,679.37c0.17-0.03,0.35-0.05,0.54-0.07c0-0.13,0-0.25,0-0.38
		C775.25,679.54,775.35,679.39,775.47,679.37z"/>
	<path class="st0" d="M622.51,285.7c-2.14,5.8-0.32,12.73,3.12,14.23c-0.28,1.98-0.96,3.73-0.68,5.31
		c1.48,8.33,2.08,17.06,5.16,24.79c2.99,7.52,7.21,15,14.05,20.21c1.07,0.81,2.34,1.57,3.62,1.85c6.94,1.55,13.95,2.8,20.86,4.47
		c3.33,0.81,6.44,2.45,9.73,3.48c1.56,0.49,3.28,0.43,5.63,0.69c-0.21,0.81-0.14,2.59-0.85,2.98c-4.01,2.24-2.42,5.86-2.26,8.9
		c0.3,5.89,0.87,11.78,1.71,17.61c0.82,5.66,1.85,11.32,3.31,16.84c1.05,3.96,5.28,6.04,8.96,4.29c4.34-2.07,8.61-4.64,10.16-9.81
		c2.11-7.02,3.39-13.95,2.34-21.49c-0.97-7-0.53-14.24-0.15-21.34c0.1-1.78,2.02-4.01,3.71-5.02c2.41-1.43,5.53-1.62,8.08-2.89
		c4.43-2.2,8.86-4.23,12.08-8.55c2.84-3.81,7.18-6.47,10.44-10.02c7.22-7.89,9.68-17.76,10.36-28.05
		c0.76-11.46,1.83-23.01,1.16-34.43c-0.67-11.38-4.48-22.27-11.76-31.41c-2.98-3.75-7.47-4.28-11.96-3.48
		c-0.97,4.83,0.63,10.18-4.1,13.99c-1.65,1.33,1.47,11.02,2.51,11.64c0.28,5.37,0.52,10.04,0.8,15.43c1.3-1.18,1.91-1.73,3.03-2.75
		c-0.01,3.75,0.31,6.99,6.01,4.61c-0.09,0.66-0.17,1.33-0.26,1.99c-1.55,1.26-2.94,2.83-4.68,3.72c-3.18,1.63-5.57,2.94-0.4,5.07
		c0.97,0.4,1.9,0.88,2.86,1.32c-0.41,0.6-0.82,1.2-1.24,1.8c-1.47-0.4-2.93-0.79-3.86-1.05c-0.59,6.75-0.78,13.71-1.93,20.51
		c-1.02,6.04-3.69,11.28-10.77,12.57c-5.34,0.98-9.41-1.22-9.98-6.53c-0.92-8.54-1.42-17.14-1.83-25.73
		c-0.76-15.9-1.11-31.83-2.06-47.72c-0.4-6.71-5.54-11.14-10.2-15.11c-3.51-3-11.8,0.41-13.08,5.56
		c-2.41,9.77-3.87,19.78-5.72,29.69c0.44,0.14,0.89,0.28,1.33,0.42c0.73-1.07,1.47-2.15,2.2-3.22c0.52,0.04,1.05,0.07,1.57,0.11
		c0,1.87,0.45,3.91-0.18,5.54c-0.35,0.91-2.5,1.13-4.71,2.01c0.59,12.85,1.25,26.31,1.79,39.78c0.13,3.16-0.09,6.34-0.25,9.51
		c-0.18,3.79-1.87,6.35-5.93,6.84c-4.3,0.53-7.8-0.42-9.85-4.71c-4.87-10.15-7.29-20.91-7.85-32.07
		c-0.57-11.23-0.82-22.48-1.28-33.71c-0.43-10.43-7.26-19.36-16.1-21.31c-2.78-0.61-5.09-0.54-6.16,2.68
		c-1.44,4.35-2.56,8.86-4.5,12.97c-2.09,4.44-0.25,9.82-4.15,13.92c-1.36,1.43-0.68,4.82-0.98,7.85c1.18-0.94,2.19-1.76,2.99-2.39
		c0.76,1.7,1.48,3.29,2.65,5.9c-1.99,0.13-3.9,0.25-6.33,0.4C619.24,278.11,617.61,282.83,622.51,285.7z M676.18,281.95
		c0.4-2.27,0.81-4.55,1.21-6.82c0.69,0.11,1.39,0.22,2.08,0.34c-0.33,2.29-0.65,4.58-0.98,6.87
		C677.72,282.21,676.95,282.08,676.18,281.95z M637.88,330.82c0.01,0.14,0.02,0.28,0.03,0.42h0c-2.26,0-4.52,0-6.78,0
		c-0.01-0.66-0.01-1.32-0.02-1.99c1.74-2.19,3.87-3.15,6.35-1.11C637.98,328.57,637.84,329.81,637.88,330.82z M626.78,287.36
		c3.27,2.31,5.84,4.12,8.5,6c-5.48,3.97-9.12,2.97-12.67-3.47C624.1,288.99,625.6,288.08,626.78,287.36z"/>
	<path class="st0" d="M794.31,313.29c1.54,5.26,4.54,10.28,7.74,14.81c4.66,6.6,7.99,14.42,15.76,18.45
		c6.9,3.58,13.83,6.99,21.84,7.11c6.58,0.1,8.46,1.51,10.55,7.76c0.41,1.24,1.22,2.35,1.74,3.32c-0.46,1.53-1.78,3.48-1.4,5.01
		c1.76,7.17,3.75,14.32,6.15,21.3c1.28,3.74,5.17,4.44,8.44,3.85c2.14-0.39,5.1-2.32,5.67-4.18c2.21-7.17,3.82-14.54,5.24-21.92
		c0.71-3.69,0.68-7.55,0.73-11.34c0.05-3.83,2.37-5.2,5.6-6.06c3.72-1,8.03-1.38,10.94-3.56c8.27-6.21,18.57-10.14,23.75-19.99
		c0.83-1.58,1.46-3.31,1.86-5.05c3.6-15.48,1.93-31.14,1.31-46.73c-0.28-7.09-1.39-14.16-2.44-21.2
		c-1.19-8.03-6.52-12.54-14.71-15.59c-0.98,2.65-2.09,5.12-2.79,7.7c-0.98,3.58-1.64,7.24-2.45,10.86c-0.1,0.43-0.23,1.14-0.49,1.21
		c-4.82,1.29-3.1,5.24-3.15,8.2c-0.17,9.83-0.06,19.66,0.71,29.61c0.73-1.43,1.46-2.87,2.41-4.74c1.78,4.25,0.97,6.01-2.36,7.26
		c-1.02,6.44-2,12.65-2.97,18.85c-2.65,2.86-6.71,4.73-6.51,9.59c0.02,0.5-0.85,1.36-1.44,1.5c-3.61,0.88-8.95-3.64-8.97-7.64
		c-0.08-14.39,0.25-28.8-0.23-43.18c-0.45-13.45-0.01-27.09-5.21-39.96c-2.77-6.85-6.69-12.47-14.19-14.8
		c-2.55-0.79-3.64-0.7-4.72,2.42c-2.22,6.42-1.76,12.87-2,19.39c-0.18,4.8-1.18,9.57-1.81,14.35c-0.62-0.04-1.25-0.08-1.87-0.12
		c0-4.08,0-8.17,0-12.25c-0.26-0.12-0.52-0.25-0.79-0.37c-0.39,1.14-1.14,2.29-1.13,3.43c0.15,11.36,0.32,22.73,0.69,34.09
		c0.36,11.2,1.09,22.39,1.37,33.59c0.13,5.07-4.11,8.09-8.64,5.92c-7.68-3.68-14.72-8.47-15.78-17.95
		c-1.52-13.53-2.38-27.14-4.11-40.64c-1.03-8.04-3.02-15.97-4.98-23.86c-0.4-1.58-2.52-3.69-4.04-3.85
		c-3.69-0.41-7.53-0.07-11.22,0.54c-1.02,0.17-1.7,2.35-2.53,3.61c0,0,0.13-0.14,0.13-0.14c0,0.04-0.01,0.07-0.01,0.11
		c1.21-0.25,2.41-0.5,3.62-0.75c-0.01,1.28,0.2,2.6-0.07,3.82c-0.39,1.71-0.97,3.42-1.8,4.95c-0.48,0.88-1.61,1.4-2.99,2.53
		c0.5-4.24,0.87-7.4,1.25-10.55c-0.01,0-0.03,0.01-0.04,0.01c-2.71,5.87-5.45,11.73-4.09,18.75c0.53-0.85,0.97-1.54,1.41-2.25
		c4.02,2.62,3.72,5.87-0.53,8.86c-0.99,0.69-2.17,1.96-2.21,3.01c-0.2,5.26-0.68,10.63,0.1,15.78
		C790,295.29,791.72,304.44,794.31,313.29z M898.16,288.04c-3.35-3.82-2.98-6.82,0-7.97C898.16,282.78,898.16,285.41,898.16,288.04z
		 M892.03,318.18c0.01,0.01,0.02,0.01,0.02,0.02c1.49-1.4,2.97-2.78,4.45-4.16c0.43,0.59,0.85,1.18,1.28,1.78
		c-2.57-0.3-0.39,7.27-5.72,2.38c-0.02,0.02-0.05,0.04-0.07,0.07C891.97,318.28,892.03,318.18,892.03,318.18z"/>
	<path class="st0" d="M738.27,659.83c-4.63-2.16-14.59,1.07-16.53,5.62c-3.77,8.83-6.8,17.98-10.35,27.58
		c2.89-1.32,2.21-6.48,6.76-4.45c-1.31,3.89-2.9,6.55-6.64,8.76c-3.19,1.88-4.77,6.51-7.78,11c2.55-0.31,3.46-0.42,5.1-0.62
		c-1.17,1.03-1.92,2.22-2.6,2.18c-5.11-0.26-6.78,3.6-8.12,7.14c-1.77,4.65-2.75,9.61-4.15,14.41c-0.37,1.26-0.98,2.46-1.56,3.65
		c-1.87,3.86-6.35,6.72-2.89,12.33c1.66,2.7,1.72,6.85,1.36,10.21c-0.42,3.84-2.12,7.54-3.27,11.3c-0.81,2.66-1.31,5.47-2.55,7.91
		c-1.02,2.01-2.65,3.94-4.47,5.25c-2.47,1.77-4.22,3.07-0.82,5.52c0.4,0.29,0.79,1.04,0.71,1.49c-0.85,4.88-1.43,9.85-2.79,14.59
		c-1.96,6.87-4.56,13.55-6.73,20.37c-0.44,1.38-0.46,3.05-0.15,4.47c1.07,5,2.6,6.22,7.59,4.99c8.11-2,16.52-3.93,19.8-13.22
		c1.5-4.24,2.68-8.58,4.1-12.85c3.37-10.14,7.01-20.21,10.14-30.42c3.11-10.12,5.72-20.39,8.59-30.58c0.7-2.47,1.48-4.92,2.38-7.32
		c2.58-6.93,5.12-13.88,7.89-20.74c1.7-4.21,4-8.18,5.67-12.39c3.18-7.99,5.66-16.29,9.28-24.07c2.59-5.57,1.18-10.89-0.13-15.87
		C745.42,663.43,741.29,661.24,738.27,659.83z M690.8,787.28c1.88-1.12,3.76-2.24,6.37-3.79
		C696.99,789.25,694.15,788.69,690.8,787.28z M693.79,748.33c-0.44-0.14-0.88-0.28-1.32-0.41c-0.49-8.68,1.48-13.76,5.76-13.2
		C696.73,739.33,695.26,743.83,693.79,748.33z M701.82,762.36c-1.5-1.95-3.18-3.21-3-4.12c0.29-1.51,1.77-2.78,2.76-4.16
		c1.08,0.82,3.15,1.81,3.05,2.42C704.32,758.24,703.13,759.81,701.82,762.36z M707.96,715.68c-1.54,3.37-3.35,6.63-5.34,9.75
		c-0.67,1.06-2.15,1.6-3.26,2.37c-0.4-0.35-0.8-0.7-1.2-1.05c0.67-1.59,1.26-3.21,2.02-4.75c1.34-2.71,2.69-5.43,4.25-8.01
		c0.48-0.79,1.69-1.14,2.57-1.69C707.36,713.45,708.33,714.87,707.96,715.68z M717.75,683.5c3.61-4.25,2.58-11.12,8.23-14.69
		C726.59,674.32,722.22,682.3,717.75,683.5z"/>
	<path class="st0" d="M904.45,763.39c-0.98-3.02-1.63-6.38-3.41-8.89c-8.07-11.34-12.65-24.12-16.51-37.29
		c-3.93-13.4-11.01-25.17-18.22-37.04c-4.81-7.91-10.51-14.38-18.04-19.34c-2.37-1.56-5.46-2.04-8.94-3.27
		c0.2,2.78,0.6,3.89,0.28,4.73c-1.23,3.31-3.56,6.47-3.83,9.82c-0.28,3.54,0.78,7.46,2.2,10.81c5.6,13.24,11.7,26.26,17.37,39.47
		c5.5,12.82,10.05,26.08,16.19,38.57c6.53,13.27,10.77,27.77,20.39,39.48c2.11,2.58,3.46,5.77,5.41,8.5
		c0.59,0.82,2.01,1.32,3.1,1.45c6.58,0.78,12.07-4.12,12.2-11.03c0.17-9.56-2.4-18.57-5.79-27.42
		C905.8,769.19,905.36,766.2,904.45,763.39z"/>
	<path class="st0" d="M216.31,312.85c6.4,0.47,12.84,0.45,19.26,0.66c2.37,0.08,4.73,0.42,7.1,0.49c13.51,0.4,27.04,0.51,40.53,1.2
		c9.38,0.48,18.51,1.28,27.97-1.03c5.23-1.28,11.41,0.74,17.04,1.87c8.58,1.72,11.89-0.1,14.28-8.62
		c1.98-7.02,2.12-13.69-2.56-19.94c-3.74-4.99-8.27-6.38-14.54-6.06c-11.91,0.62-23.88,0.07-35.83,0
		c-7.9-0.05-15.81,0.02-23.71-0.18c-10.12-0.26-20.17-0.99-30.11,2.28c-3.37,1.11-7.38,0.3-11.1,0.3c-3.68,0.01-6.15,1.33-5.76,6.26
		c-1.68-1.25-2.67-1.99-4.45-3.32c-1.46,8.08-3.5,15.41-1.42,22.96C213.36,311.02,215.1,312.76,216.31,312.85z M217.52,293.86
		c3.48,5.58-2.36,6.52-3.36,9.63c-0.54-0.22-1.08-0.44-1.62-0.65C214.14,299.96,215.73,297.09,217.52,293.86z"/>
	<path class="st0" d="M679.73,779.63c6.55-5.99,3.5-15.3,8.02-21.98C680.99,763.48,681.26,771.91,679.73,779.63z"/>
	<path class="st0" d="M506.37,640.78c1.23,1.55,3.05,2.97,2.81,3.75c-0.38,1.26-1.98,2.48-3.34,3.08c-5.58,2.44-6.07,4.36-2.99,9.24
		c1.1,1.73,0.76,4.37,1.12,6.83c3.2-2.25,6.65-4.68,9.88-6.94c0.29-6.46,0.59-13.01,0.89-19.55c0.27-0.06,0.54-0.12,0.81-0.18
		c0.44,0.98,0.7,2.13,1.39,2.89c0.49,0.54,1.6,0.82,2.36,0.72c0.46-0.06,1.06-1.06,1.12-1.68c0.29-2.89,0.42-5.8,0.61-8.86
		c-2.05,0.66-4.11,1.31-7.25,2.32c1.04-2.57,1.56-3.86,2.22-5.47C506.09,627.6,510.94,637.49,506.37,640.78z"/>
	<path class="st0" d="M472.65,335.78c-0.03-1.66,0.14-3.32,0.26-5.74c-1.25-0.5-2.87-1.14-4.57-1.82c-1.42,2.26-2.89,4.37-4.1,6.62
		c-0.61,1.14-1.24,2.64-0.99,3.79c1.02,4.74,2.37,9.4,3.7,14.49c3.12-1.93,7.06-2.89,5.38-8.18c-0.4-1.25,0.61-2.88,0.66-4.35
		C473.06,338.99,472.67,337.38,472.65,335.78z"/>
	<path class="st0" d="M449.44,571.55c0.28,3.65-0.41,6.12-3.67,7.24c0.55,1.68,1.04,3.2,1.52,4.67c0.15,0.45,0.29,0.89,0.43,1.33
		c1.9-0.76,3.81-1.52,6.53-2.61c-1.64-1.43-2.32-2.02-3.2-2.79c1.94-6.39,3.96-13.04,5.99-19.71
		C453.32,560.97,449.09,566.87,449.44,571.55z"/>
	<path class="st0" d="M447.74,584.79c-0.02,0.01-0.04,0.02-0.06,0.02l0.1,0.11c-0.01-0.04-0.03-0.08-0.04-0.11
		C447.74,584.81,447.74,584.8,447.74,584.79C447.74,584.79,447.74,584.79,447.74,584.79z"/>
	<path class="st0" d="M534.56,403.62c-1.63,5.66-3.26,11.32-4.87,16.9c1.76,0.02,1.92,0.09,6.41-9.6c1.73-3.73,2.57-7.88,3.81-11.84
		c-0.47-0.23-0.93-0.45-1.4-0.68c-1.36,1.78-2.72,3.57-4.08,5.36c0,0,0,0,0,0.01C534.42,403.77,534.56,403.62,534.56,403.62z"/>
	<path class="st0" d="M533.82,545.87c0.44-0.52-0.31-3.01-1.07-3.35c-0.88-0.4-2.91,0.18-3.52,1c-1.94,2.64-3.42,5.61-5.14,8.42
		c-0.9,1.48-1.91,2.89-3.31,4.98c1.21-0.14,2.39,0.09,2.87-0.38C527.17,553.09,530.62,549.59,533.82,545.87z"/>
	<path class="st0" d="M406.29,517.99c0.52,0.46,1.04,0.92,1.56,1.38c3.68-4.04,7.35-8.09,11.03-12.13
		c-0.62-0.55-1.23-1.09-1.85-1.64C413.45,509.73,409.87,513.86,406.29,517.99z"/>
	<path class="st0" d="M379.5,579.21c0.41,0.22,0.83,0.44,1.24,0.66c2.26-4.13,4.53-8.27,6.79-12.4c-0.58-0.33-1.17-0.66-1.75-0.99
		C381.64,569.69,380.42,574.37,379.5,579.21z"/>
	<path class="st0" d="M372,595.36c0.42,0.29,0.85,0.58,1.27,0.88c4.06-3.49,6.15-8.05,6.97-13.32c-0.41-0.23-0.82-0.45-1.23-0.68
		C376.68,586.62,374.34,590.99,372,595.36z"/>
	<path class="st0" d="M395.4,540.26c0.51,0.24,1.02,0.48,1.53,0.72c2.02-4.65,4.03-9.3,6.05-13.95
		C399.13,530.78,395.58,534.69,395.4,540.26z"/>
	<path class="st0" d="M560.22,692.55c1.26-3.42,2.51-6.85,3.9-10.64c-3.98,0.45-6.5,5.86-5.48,10.01
		C559.17,692.13,559.7,692.34,560.22,692.55z"/>
	<path class="st0" d="M447.69,585.01c-1.46,1.36-2.92,2.71-4.38,4.07c4.06,1.39,7.55,2.55,9.91-2.04c-0.29-0.1-0.59-0.14-0.9-0.15
		c-1.55-0.05-3.25,0.78-4.09-0.07C447.9,586.5,447.71,585.93,447.69,585.01z"/>
	<path class="st0" d="M447.68,584.83c0,0.07,0.01,0.12,0.01,0.18c0,0,0,0,0,0c0,0,0,0,0.01,0c0.03-0.03,0.06-0.05,0.08-0.08
		C447.78,584.93,447.68,584.82,447.68,584.83z"/>
	<path class="st0" d="M532.21,724.74c1.46-1.28,3.74-2.33,4.16-3.89c0.46-1.69-0.81-3.85-1.33-5.81c-0.62,0.15-1.25,0.3-1.87,0.45
		c0,1.47,0.24,2.99-0.07,4.38c-0.3,1.35-1.16,2.58-1.78,3.87C531.61,724.07,531.91,724.41,532.21,724.74z"/>
	<path class="st0" d="M364.81,631.01c1.25-3.53,2.49-7.07,3.74-10.61C364.82,619.85,362.38,625.17,364.81,631.01z"/>
	<path class="st0" d="M447.85,392.26c0.17,2.36,0.34,4.71,0.51,7.07c1.29-0.39,3.72-0.97,3.69-1.15c-0.34-2.16-1.06-4.26-1.67-6.38
		C449.53,391.96,448.69,392.11,447.85,392.26z"/>
	<path class="st0" d="M482.43,441.95c2.32-2.14,5.79-3.84,3.32-8.37C480.96,434.98,482.79,438.98,482.43,441.95z"/>
	<path class="st0" d="M566.97,603.09c-0.49-0.17-0.98-0.33-1.47-0.5c-0.74,3.07-1.48,6.14-2.28,9.47
		C566.17,611.74,566.17,611.74,566.97,603.09z"/>
	<path class="st0" d="M539.56,499.52c-4.51-1.35-6.66,0.65-6.13,6.6C535.96,503.39,537.63,501.59,539.56,499.52z"/>
	<path class="st0" d="M558.06,718.07c-5.88,0.23-7.27,2.13-5.11,7.58C554.77,722.95,556.21,720.82,558.06,718.07z"/>
	<path class="st0" d="M449.47,423.69c-0.9,0.31-2.04,0.73-2.47,1.47c-0.93,1.61-1.48,3.44-2.41,5.73c4.42,0.18,4.59-3.43,5.96-5.73
		C450.68,424.94,449.65,423.62,449.47,423.69z"/>
	<path class="st0" d="M363.7,636.99c-1.55-0.04-3.11,0.26-5.42,0.53c1.43,2,2.12,2.96,3.14,4.38c1.14-1.02,2.27-1.75,2.96-2.78
		C364.66,638.72,363.98,637,363.7,636.99z"/>
	<path class="st0" d="M565.9,672.4c-0.47-0.24-0.95-0.48-1.42-0.72c-0.98,2.1-1.97,4.21-3.15,6.73
		C565.69,677.9,566.44,676.72,565.9,672.4z"/>
	<path class="st0" d="M394.2,545.54c-3.15,1.91-6.1,3.71-9.06,5.51C392.96,551.04,393.57,550.7,394.2,545.54z"/>
	<path class="st0" d="M385.14,551.05C385.14,551.05,385.14,551.05,385.14,551.05c-0.01,0-0.01,0-0.01,0c0,0,0,0.01,0,0.01
		C385.13,551.06,385.14,551.05,385.14,551.05z"/>
	<path class="st0" d="M339.29,799c-0.9,2.2-1.81,4.39-2.71,6.59c3.96-0.83,4.88-3.08,4.33-5.92
		C340.37,799.44,339.83,799.22,339.29,799z"/>
	<path class="st0" d="M493.9,672.65c-1.23,1.53-2.51,3.03-3.63,4.64c-0.1,0.15,0.83,1.01,1.28,1.54c1.4-1.5,2.8-3,4.2-4.49
		C495.13,673.77,494.52,673.21,493.9,672.65z"/>
	<path class="st0" d="M511.69,489.56c0.58,0.2,1.15,0.39,1.73,0.59c0.5-1.78,1.01-3.56,1.69-5.94
		C510.19,484.78,511.4,487.38,511.69,489.56z"/>
	<path class="st0" d="M249.01,525.45c-1.02,0.33-2.67,0.39-2.96,1.05c-2.86,6.35-5.5,12.8-8.18,19.23
		c-0.28,0.68-0.13,1.72-0.59,2.12c-4.22,3.69-4.47,9.12-6.37,13.84c-1.2,2.99-3.17,5.68-5.22,9.24c5.52,0.11,6.93-3.25,8.19-6.38
		c1.74-4.31,2.8-8.89,4.65-13.15c3.41-7.84,7.22-15.51,10.75-23.29C249.6,527.41,249.12,526.35,249.01,525.45z"/>
	<path class="st0" d="M305.82,627.55c-2.1,2.81-4.43,5.14-8.06,5.84c-0.38,0.07-0.6,0.99-1.21,2.1c1.32,0.38,2.53,0.59,3.6,1.09
		c0.89,0.42,1.6,1.2,2.4,1.82c-0.84,0.59-1.62,1.34-2.55,1.74c-1.34,0.58-2.78,0.92-4.18,1.37c0.21,0.49,0.41,0.98,0.62,1.46
		c9.75,1.47,15.38-5.18,12.03-14.37C308.25,627.98,305.99,627.33,305.82,627.55z"/>
	<path class="st0" d="M281.48,689.83c0.13,0.44,0.26,0.88,0.4,1.32c1.4-0.64,3.52-0.92,4.08-2c2.81-5.41,6.31-10.65,7.13-16.8
		c-0.53-0.24-1.06-0.49-1.59-0.73C288.16,677.69,284.82,683.76,281.48,689.83z"/>
	<path class="st0" d="M223.81,590.78c2.27-1.81,4.22-3.01,3.49-6.84c-0.49-2.57,1.5-5.62,2.46-8.73
		C223.93,575.58,220.93,584.21,223.81,590.78z"/>
	<path class="st0" d="M256.72,503.19c-6.43,4.21-7.39,6.93-4.33,11.53C256.31,512.53,257.9,508.5,256.72,503.19z"/>
	<path class="st0" d="M247.3,523.11c0.78,0.44,2.46,0.5,2.98-0.02c1.53-1.56,2.69-3.49,4.27-5.65c-2.28-0.84-9.24,1.7-9.1,3.01
		C245.55,521.42,246.43,522.61,247.3,523.11z"/>
	<path class="st0" d="M233.66,643.5c-0.09,0.3,1.75,1.76,2.38,1.58c2.99-0.86,4.44-2.8,2.99-6.19
		C235.59,638.53,234.42,640.91,233.66,643.5z"/>
	<path class="st0" d="M222.62,598.91c-1.62,0.63-3.33,1.21-4.96,1.97c-0.54,0.25-1.14,0.94-1.18,1.47
		c-0.03,0.38,0.78,1.05,1.32,1.19C221.79,604.59,223.59,602.47,222.62,598.91z"/>
	<path class="st0" d="M222.63,640.93c-1.14,0.11-2.17,1.31-4,2.58c1.53,1.21,2.6,2.53,3.08,2.34c1.22-0.48,2.18-1.63,3.24-2.51
		C224.17,642.48,223.32,640.87,222.63,640.93z"/>
	<path class="st0" d="M224.07,608.6c-0.8-0.39-2.08-1.3-2.33-1.07c-1.23,1.13-2.19,2.55-3.25,3.88c0.63,0.51,1.26,1.02,1.89,1.53
		C221.61,611.49,222.84,610.04,224.07,608.6z"/>
	<path class="st0" d="M264.41,439.19c-2.85,1.36-5.7,2.72-8.54,4.08c0.31,0.54,0.63,1.09,0.94,1.63c2.81-1.37,5.63-2.74,8.44-4.12
		C264.97,440.25,264.69,439.72,264.41,439.19z"/>
	<path class="st0" d="M785.42,829.76c-1.17,0.64-2.33,1.27-3.48,1.9c0.76,1.04,1.55,2.96,2.28,2.93c1.34-0.04,3.18-0.89,3.86-2
		c1.42-2.31,2.22-4.99,3.69-8.52C784.54,825.88,784.54,825.88,785.42,829.76z"/>
	<path class="st0" d="M850.39,573.71c0.57-1.7,1.14-3.4,2.1-6.24c-1.85,0.52-4.1,0.7-4.2,1.26c-0.28,1.68,0.27,3.5,0.5,5.26
		C849.32,573.9,849.85,573.81,850.39,573.71z"/>
	<path class="st0" d="M861.4,527.44c-0.09-0.37-0.19-0.74-0.28-1.11c-1.92,0-3.83,0-6.32,0c1.32,1.45,2.28,2.51,3.59,3.95
		C859.44,529.3,860.42,528.37,861.4,527.44z"/>
	<path class="st0" d="M635.28,293.36c-2.66-1.88-5.23-3.69-8.5-6c-1.19,0.72-2.69,1.63-4.17,2.53
		C626.17,296.32,629.81,297.33,635.28,293.36z"/>
	<path class="st0" d="M631.11,329.25c0.01,0.66,0.01,1.32,0.02,1.99c2.26,0,4.52,0,6.78,0h0c-0.02-0.13-0.03-0.27-0.03-0.42
		c-0.04-1.01,0.1-2.25-0.42-2.68C634.98,326.1,632.85,327.06,631.11,329.25z"/>
	<path class="st0" d="M679.47,275.47c-0.69-0.11-1.39-0.22-2.08-0.34c-0.4,2.27-0.81,4.55-1.21,6.82c0.77,0.13,1.54,0.26,2.32,0.39
		C678.82,280.05,679.14,277.76,679.47,275.47z"/>
	<path class="st0" d="M795.72,250.01c0.83-1.53,1.41-3.25,1.8-4.95c0.28-1.22,0.07-2.54,0.07-3.82c-1.21,0.25-2.41,0.5-3.62,0.75
		c-0.37,3.15-0.75,6.31-1.25,10.55C794.11,251.41,795.25,250.89,795.72,250.01z"/>
	<path class="st0" d="M793.99,241.88c0,0-0.12,0.14-0.13,0.14c0.02,0,0.05-0.01,0.07-0.01c0.01,0,0.03-0.01,0.04-0.01
		C793.98,241.96,793.98,241.92,793.99,241.88z"/>
	<path class="st0" d="M898.16,288.04c0-2.63,0-5.26,0-7.97C895.18,281.22,894.81,284.22,898.16,288.04z"/>
	<path class="st0" d="M897.78,315.82c-0.43-0.59-0.85-1.18-1.28-1.78c-1.48,1.38-2.96,2.76-4.45,4.16
		C897.39,323.09,895.21,315.52,897.78,315.82z"/>
	<path class="st0" d="M892.03,318.18c0,0-0.06,0.11-0.05,0.09c0.02-0.02,0.05-0.04,0.07-0.07
		C892.05,318.19,892.04,318.18,892.03,318.18z"/>
	<path class="st0" d="M704.43,714c-1.57,2.58-2.91,5.3-4.25,8.01c-0.76,1.54-1.35,3.16-2.02,4.75c0.4,0.35,0.8,0.7,1.2,1.05
		c1.11-0.78,2.59-1.32,3.26-2.37c1.99-3.13,3.8-6.39,5.34-9.75c0.37-0.81-0.6-2.23-0.96-3.36
		C706.12,712.86,704.91,713.21,704.43,714z"/>
	<path class="st0" d="M717.75,683.5c4.47-1.2,8.84-9.19,8.23-14.69C720.33,672.38,721.37,679.25,717.75,683.5z"/>
	<path class="st0" d="M692.47,747.92c0.44,0.14,0.88,0.28,1.32,0.41c1.47-4.5,2.94-9,4.44-13.61
		C693.95,734.16,691.99,739.23,692.47,747.92z"/>
	<path class="st0" d="M701.57,754.09c-0.98,1.37-2.46,2.65-2.76,4.16c-0.18,0.9,1.5,2.17,3,4.12c1.31-2.55,2.51-4.12,2.8-5.85
		C704.72,755.89,702.65,754.91,701.57,754.09z"/>
	<path class="st0" d="M697.18,783.49c-2.61,1.55-4.49,2.67-6.37,3.79C694.15,788.69,696.99,789.25,697.18,783.49z"/>
	<path class="st0" d="M217.52,293.86c-1.79,3.23-3.38,6.1-4.98,8.97c0.54,0.22,1.08,0.44,1.62,0.65
		C215.16,300.38,221,299.44,217.52,293.86z"/>
</g>
</svg>
